<svg id="Layer_1" data-name="Layer 1" xmlns="http://www.w3.org/2000/svg" viewBox="0 0 540.45 31.97"><defs><style>.cls-1{fill:#fff;}</style></defs><path class="cls-1" d="M41.82,31.43c-.18-.43,0-.6.6-.71a.43.43,0,0,1,.23.07c.06.39.11.78.16,1.18h102c-.06-.08-.17-.15-.17-.22s.13-.12.2-.18l.18.22-.21.18H439.18a2.22,2.22,0,0,1,.32-.14s.07.06.12.14h2.82a.34.34,0,0,1,0-.41c0-.08.17-.12.27-.18l.51.44A1.5,1.5,0,0,0,443,32h97.47V29.11a1.31,1.31,0,0,1-.27.21.48.48,0,0,1-.35,0c-.09,0-.22-.24-.2-.26a5.46,5.46,0,0,1,.44-.38l.38.39V21.32h0a6.54,6.54,0,0,1-.6-.28.55.55,0,0,1,.12-.32l.51-.45V11.15a1.65,1.65,0,0,1-1,.25c-.53-.12-1.16-.12-1.46-.73a.44.44,0,0,1,0-.3.41.41,0,0,1,.19-.25.53.53,0,0,1,.35,0,2.29,2.29,0,0,0,1.88.15V9.11a.32.32,0,0,1-.16-.21c-.06-.18,0-.53.07-.59l.09-.05V1a3.19,3.19,0,0,0-.67.24,19.23,19.23,0,0,0-3.63.26,3.92,3.92,0,0,1-3.06-.82c-1.43.33-2.69.76-4.11.26a3.06,3.06,0,0,0-1.82.06,4.24,4.24,0,0,1-3.57,0,1.41,1.41,0,0,0-1.06.07c-1.29.53-2.67.07-4,.39-.64.15-1.41-.28-2.14-.39a1.88,1.88,0,0,0-1.08,0c-2.11,1-4.13.21-6.34-.84-1.83,1.56-3.74,1.32-5.6,1.15-4.92-.46-5.64-.53-9.86.38a3.65,3.65,0,0,1-2-.14,7.69,7.69,0,0,0-3.81,0,2.28,2.28,0,0,1-.9-.05c-1.28-.32-2.56-.22-3.86-.52a7.33,7.33,0,0,0-2.56-.09,19.59,19.59,0,0,1-5.81.07,4.62,4.62,0,0,0-1.47-.1,5.91,5.91,0,0,1-3.58,0,1.49,1.49,0,0,0-1.07.09,3.08,3.08,0,0,1-3.27-.3,30.87,30.87,0,0,1-8.77.77,18.37,18.37,0,0,0-4.8.12,2.76,2.76,0,0,1-2.46-.33,1.27,1.27,0,0,0-1-.05,3.91,3.91,0,0,1-3.57-.05,1.79,1.79,0,0,0-1.75.06,1.91,1.91,0,0,1-1.43.1,6.82,6.82,0,0,0-1.78-.44,9.62,9.62,0,0,0-3.09.58c-1,.06-2.08-.53-3.07,0a1.19,1.19,0,0,1-1.37,0,1.43,1.43,0,0,0-1.39-.07,1.44,1.44,0,0,1-1.06,0,3.19,3.19,0,0,0-3.17-.17,5.31,5.31,0,0,1-2.56.15,8.57,8.57,0,0,0-3.6.06,3,3,0,0,1-1.45-.09,2.16,2.16,0,0,0-1.42-.11,4.87,4.87,0,0,1-3.62,0,4.21,4.21,0,0,0-3.57.13.89.89,0,0,1-.69.11c-1.23-.71-2.34-.12-3.51.18a2.27,2.27,0,0,1-1.41-.3,1.74,1.74,0,0,0-2,0,1.56,1.56,0,0,1-1.4.23,3.85,3.85,0,0,0-2.53-.1,4.31,4.31,0,0,0-2.88-.08,4.13,4.13,0,0,0-3.2.1,3.77,3.77,0,0,1-1.83,0,6.47,6.47,0,0,0-3.45.16,4.34,4.34,0,0,0-3.79-.15.81.81,0,0,1-.7,0c-1-.83-2.18,0-3.21-.37a5.89,5.89,0,0,0-3.28.24,3.68,3.68,0,0,1-3.21-.26c-1.91.83-3.94.27-5.88.57A4.5,4.5,0,0,1,365,1.55a7.42,7.42,0,0,0-4-.41c-1.45.34-2.93.12-4.36.53L350.17.29a2.46,2.46,0,0,1-.65.32c-1.45.3-2.69,1.08-4.13,1.49-.1.67-.14,1.26-.28,1.83a3.66,3.66,0,0,1-.46.93.37.37,0,0,1-.32.13c-.2-.09-.53-.22-.55-.36a2.1,2.1,0,0,1,.14-1c.5-1.18,0-1.75-1.18-2.11a5.18,5.18,0,0,0-3.25-.19,3.5,3.5,0,0,1-2.17-.05,2.21,2.21,0,0,0-1.42-.11,4.67,4.67,0,0,1-3.9.14c-.16-.07-.44.14-.67.22s-.7.38-1,.34c-1.34-.15-2.7.3-4-.26a2.38,2.38,0,0,0-1.42.14c-.94.29-1.61-.25-2.36-.77a1.73,1.73,0,0,1-2.07.74,3.71,3.71,0,0,0-2.52.22c-.3.12-.51.47-.74.69a1.32,1.32,0,0,0,.17.39,1.66,1.66,0,0,1,.16,2.52,11.42,11.42,0,0,0-1.74,3.29c-1.14-.86-1.2-1.09-.61-2.17a3.55,3.55,0,0,0,.45-.89c0-.15-.18-.5-.33-.52-.52-.09-1.06-.1-1.59-.14a3.43,3.43,0,0,0,.3-1.67l-.59.07c-.5,0-.71.3-.61.79h0c-.39-1.12-1.57-1.52-2.36-2.28-1,.66-1.74,0-2.6-.21-1.22-.25-2.42-.26-3.15,1.06-.15.27-.58.4-.88.6V3.6l-.07,0a1.31,1.31,0,0,0,0-1.61,24.33,24.33,0,0,1-3.2-.72c-1.14-.41-2.17.37-3.27.09L297,1.25c-1.37-.25-2.27.56-3.15,1.36-.07.07.06.54.19.6a8.81,8.81,0,0,0,1.07.21c.33.09.55.71.31.86-.82.48-.95,1.71-2.17,1.76-.3,0-.6.38-.87.61-.62.55-1.22,1.11-2.37,2.16.39-1.48.16-2.4,1.06-3.09.49-.38.39-.8,0-1.2a1.1,1.1,0,0,1-.32-1.2l-.26,0a1.74,1.74,0,0,0-.72,0,.72.72,0,0,0-.43.51,6,6,0,0,1-.68,2.76c-.57,1.05.4,2.09-.06,3.16-.16.37.16.9.16,1.36a3.35,3.35,0,0,1-.26,1,.39.39,0,0,1-.23.24c-.33.07-.5-.08-.47-.39s.09-.7.14-1A1.24,1.24,0,0,0,287,9.48c-.45-.19-.92-.34-1.37-.54a.69.69,0,0,1-.06-1.18,1.68,1.68,0,0,0,1.08-2c-.1-.68.78-1.27.43-2s-.15-1.44-.8-1.9a2.51,2.51,0,0,0-.74-.11A16.3,16.3,0,0,1,280,1.61a5.19,5.19,0,0,0-2.19.11,4.28,4.28,0,0,1-3.18-.28,1.64,1.64,0,0,0-1.05-.14,4.25,4.25,0,0,1-1.37.1A1.1,1.1,0,0,0,270.9.56a4.81,4.81,0,0,1-2.85.31,14.08,14.08,0,0,1-4.2,0,18,18,0,0,1-1.93.08c-.95-.21-1.81-.62-2.77.24-1.4-1-2.71-.71-4-.11a1.4,1.4,0,0,1-.94-.05,2.79,2.79,0,0,0-1.55-.24,9.47,9.47,0,0,1-4.49,0c-1.77-.48-4,.44-5.36-.58A.87.87,0,0,0,242,.05c-3.19,1.09-4.49,1.37-6,.69a1.06,1.06,0,0,0-.9.11c-.76.56-1.44.88-2.38-.22-1.36.39-2.73.05-4.07.15-1.06.08-2.08.49-3.17.09-.25-.1-.63.07-.92.18s-.79.37-1.19.51a1.26,1.26,0,0,1-1.46-.36,6.21,6.21,0,0,0-.73-.61,10.76,10.76,0,0,0-1.94.32,6.05,6.05,0,0,1-3.81,0,7.41,7.41,0,0,0-1.9-.36q-2.44,0-4.89.12a5.23,5.23,0,0,0-1.18.46l-5.83-.08-1.43,0a4.26,4.26,0,0,0-1.58.12c-.78.41-1.47.05-2.2,0a4.1,4.1,0,0,1-2.22-.32,1.5,1.5,0,0,0-1.79.13,1.88,1.88,0,0,1-1.84.31,3.24,3.24,0,0,0-2.2-.22,6.4,6.4,0,0,1-2.88-.23,9.36,9.36,0,0,0-5.73.21,1.91,1.91,0,0,1-1.25-.06c-.31-.07-.7-.24-.93-.12-1,.55-2.15.16-3.18.08s-1.87-.41-2.82.09a1.27,1.27,0,0,1-.94,0,12.3,12.3,0,0,0-2.89-.36,1.39,1.39,0,0,0-1.18.38,1.05,1.05,0,0,1-1.45.05,1.19,1.19,0,0,0-.87-.3,14.76,14.76,0,0,1-2.88.31,21.15,21.15,0,0,0-3,.68c-.86-.19-1.59-.39-2.34-.52a5,5,0,0,0-3.18,0,1.12,1.12,0,0,1-.91-.16,2.31,2.31,0,0,0-2.46-.16,16.9,16.9,0,0,0-3.18.23A3.4,3.4,0,0,1,143.5.58a6.16,6.16,0,0,1-3.62.23,2.74,2.74,0,0,0-1.6,0,3.69,3.69,0,0,1-3.13,0,1.32,1.32,0,0,0-.93.06c-1.13.47-2.35.07-3.51.35-.57.13-1.25-.24-1.88-.34a1.73,1.73,0,0,0-1,0c-1.85.89-3.62.19-5.56-.74-1.61,1.37-3.29,1.16-4.92,1-4.33-.4-5-.46-8.67.33A3.14,3.14,0,0,1,107,1.41a6.79,6.79,0,0,0-3.35,0,1.92,1.92,0,0,1-.79,0c-1.12-.27-2.25-.18-3.38-.45A6.59,6.59,0,0,0,97.17.8a17.16,17.16,0,0,1-5.1.06A4.08,4.08,0,0,0,90.78.77a5.18,5.18,0,0,1-3.14,0,1.37,1.37,0,0,0-1,.08A2.72,2.72,0,0,1,83.82.61a26.64,26.64,0,0,1-7.7.68,16.12,16.12,0,0,0-4.22.11,2.44,2.44,0,0,1-2.16-.29,1.11,1.11,0,0,0-.91-.05A3.42,3.42,0,0,1,65.7,1a1.59,1.59,0,0,0-1.54.05,1.7,1.7,0,0,1-1.26.09A5.76,5.76,0,0,0,61.34.77a8.46,8.46,0,0,0-2.71.51c-.9.06-1.83-.47-2.7,0a1.07,1.07,0,0,1-1.2,0,1.26,1.26,0,0,0-1.22-.07,1.2,1.2,0,0,1-.93,0,2.81,2.81,0,0,0-2.79-.15,4.74,4.74,0,0,1-2.24.13,7.7,7.7,0,0,0-3.17.05,2.52,2.52,0,0,1-1.27-.07,1.86,1.86,0,0,0-1.25-.1,4.31,4.31,0,0,1-3.18,0,3.67,3.67,0,0,0-3.14.12.84.84,0,0,1-.6.1c-1.09-.63-2.06-.12-3.09.15a2,2,0,0,1-1.23-.26,1.52,1.52,0,0,0-1.8,0,1.37,1.37,0,0,1-1.24.21,3.38,3.38,0,0,0-2.22-.09,3.79,3.79,0,0,0-2.53-.07,3.54,3.54,0,0,0-2.8.09,3.37,3.37,0,0,1-1.61,0,5.75,5.75,0,0,0-3,.14,3.81,3.81,0,0,0-3.32-.13.74.74,0,0,1-.62,0c-.88-.72-1.92,0-2.82-.32a5.21,5.21,0,0,0-2.88.21A3.23,3.23,0,0,1,2.92,1,7,7,0,0,1,0,1.43V32H42C42,31.79,41.89,31.6,41.82,31.43Zm497.52-4.79c0,.29-.34.58-.58.81s-.61,0-.68-.49c0-.12,0-.23,0-.35s0-.47-.09-1c0-.08,0-.42.08-.76,0-.09.12-.22.2-.22a.47.47,0,0,1,.33.11A2,2,0,0,1,539.34,26.64Zm-2.42-20.4a.4.4,0,0,1,.25-.22c.3-.1.63.21.57.6,0,.14-.27.37-.36.35A.6.6,0,0,1,536.92,6.24ZM536.79,13a1.25,1.25,0,0,1,.47-.5.73.73,0,0,1,1,.26,2.18,2.18,0,0,1,.25.64.54.54,0,0,1-.58.69,3.18,3.18,0,0,1-.67-.25C536.91,13.63,536.61,13.38,536.79,13Zm.16,2.85a9.7,9.7,0,0,1,1.23.66c.08.05.18.26.15.29a1,1,0,0,1-.45.36,2.87,2.87,0,0,1-.72,0,2,2,0,0,1-.65-.2.78.78,0,0,1-.29-.56C536.23,16.07,536.7,15.72,537,15.83ZM523.61,30.21a.86.86,0,0,1-.41.43c-.26.12-.75-.27-.7-.57a1.13,1.13,0,0,1,.19-.61,5,5,0,0,1,.78-.57c0,.22.11.43.15.62A2.7,2.7,0,0,1,523.61,30.21Zm2.14.45c-.11-.17-.3-.34-.29-.5,0-.39.33-.54.74-.4a.36.36,0,0,1,.23.22C526.52,30.21,526,30.67,525.75,30.66Zm2.33-17a.73.73,0,0,1-.88-.36c-.06-.29.33-.88.57-.79a2.83,2.83,0,0,1,.75.6C528.34,13.3,528.25,13.53,528.08,13.62Zm5.45,13.88c-.07-.35.14-.64.65-.73a3.13,3.13,0,0,1,.54.59c.18.29-.08.59-.49.65A.59.59,0,0,1,533.53,27.5Zm.4-13.73c-.2-.23-.2-.43,0-.56a1.12,1.12,0,0,1,.31-.1c.19.13.45.21.54.38s0,.41,0,.61a3.79,3.79,0,0,1-.6-.07C534.07,14,534,13.86,533.93,13.77Zm.94,15.42a.32.32,0,0,1-.52-.18.37.37,0,0,1,.1-.3c.29-.37.62-.47.77-.25a1.15,1.15,0,0,1,.07.28A3,3,0,0,1,534.87,29.19Zm.67-20.6c-.19-.06-.48-.05-.54-.17a.56.56,0,0,1,.17-.73,1.76,1.76,0,0,1,.48.4C535.71,8.21,535.58,8.42,535.54,8.59Zm-.86-4.52c.07-.15.32-.22.48-.33.14.13.38.25.39.39a.66.66,0,0,1-.26.52C535.05,4.81,534.55,4.35,534.68,4.07Zm-1.6,2.49a2.4,2.4,0,0,1,1,.2,7.36,7.36,0,0,1,1,.9,3.56,3.56,0,0,1-2.3-.09c-.11,0-.19-.37-.21-.57A.38.38,0,0,1,533.08,6.56Zm-1.51,4a1.82,1.82,0,0,1,1.49,1.33s-.2.12-.3.19c-.91-.08-1.44-.54-1.41-1.25C531.35,10.72,531.5,10.55,531.57,10.55Zm-1.42,3.52a.87.87,0,0,1,.27-.15c.11,0,.27,0,.35.07,1.06.94,1.77,2.2,3,3,.16.1.09.64,0,1a.64.64,0,0,1-.89.26,3.79,3.79,0,0,1-.44-.55,3.78,3.78,0,0,0-1.6-1.81c-.43-.23-.59-1-.84-1.46C530,14.29,530.08,14.15,530.15,14.07Zm-4-10.32c.15.11.2.35.36.64l-.8.4c-.09-.2-.26-.39-.26-.58A.51.51,0,0,1,526.12,3.75Zm-.69,4.42c.12-.18.28-.48.43-.48a3.28,3.28,0,0,1,2.61.89c.38.42,1,.63,1.06,1.32-.09.09-.14.2-.24.25a.38.38,0,0,1-.31,0c-1.18-.57-2.36-1.14-3.52-1.72C525.4,8.44,525.38,8.24,525.43,8.17ZM524.6,12c.14.14.38.28.41.45,0,.33-.33.55-.77.46a.43.43,0,0,1-.28-.23C523.82,12.36,524.21,12,524.6,12Zm-1.26-5.62c0-.05.15-.05.24-.07s.12.2.1.28c-.08.31-.24.34-.4.08C523.24,6.59,523.29,6.44,523.34,6.36Zm.13,13.51c.28.2.64.45.69.73a8.32,8.32,0,0,1,0,1.73c.51-.36,1.08-.58,1.6,0a19.54,19.54,0,0,1,1.58,1.93c.1.13,0,.47-.1.64a.6.6,0,0,1-.57,0c-.76-.76-1.49-1.55-2.23-2.33a2.23,2.23,0,0,0-.3-.2c0-.2,0-.5-.13-.6a9.85,9.85,0,0,0-1.16-.73h0c0-.22-.09-.44-.1-.67S523.22,19.69,523.47,19.87ZM521.89,9a.86.86,0,0,1,.28,0,1.42,1.42,0,0,1,.9,1c0,.15-.16.35-.28.5a.38.38,0,0,1-.32-.06c-.25-.37-.49-.75-.71-1.15C521.73,9.23,521.84,9.1,521.89,9Zm-.95,11.18c.8-.08,1.29.52,1.91.84a1.64,1.64,0,0,0-1.37.07.79.79,0,0,1-.65-.1c-.14-.1-.15-.38-.15-.58S520.84,20.18,520.94,20.17Zm-2-9.94c-.06-.28-.1-.56-.18-.83-.15-.51.07-.72.54-.75Zm0,.08Zm1.22-6.51c.3.06.33.2.08.34a.38.38,0,0,1-.29,0s0-.13-.07-.2S520.06,3.78,520.14,3.8Zm-1.56,2.81a1,1,0,0,1,.65,0,4.56,4.56,0,0,1,.91.52c.49.32.53.72.06,1.1a3.47,3.47,0,0,1-.9.37l-.85-1.39C518.29,6.93,518.33,6.7,518.58,6.61Zm-.14,5.24a.62.62,0,0,1,.68.67.37.37,0,0,1-.27.23.59.59,0,0,1-.66-.67A.36.36,0,0,1,518.44,11.85Zm-1.2,3.59s.22.05.22.05c0,.2-.17.26-.38.19A.56.56,0,0,1,517.24,15.44Zm-.3.39,0,.38-.28-.11Zm-1.83,12.42c-.19-.08-.46-.11-.55-.25a3.09,3.09,0,0,1-.36-.9c0-.06.15-.16.21-.23.44,0,.78.23.89.8C515.34,27.85,515.18,28.06,515.11,28.25ZM515,12c.12-.26.61-.14.88.19.4.49.47.88.2,1.26a.56.56,0,0,1-.24.24,5.64,5.64,0,0,1-.72.21,3.18,3.18,0,0,1-.37-.95A1.83,1.83,0,0,1,515,12Zm-1.94-1.87a3.78,3.78,0,0,1,.66.24c-.14.12-.29.34-.41.33s-.32-.21-.48-.33C512.92,10.26,513,10.08,513.07,10.1Zm0,12.23a1.33,1.33,0,0,1,1.64.89,1,1,0,0,1,0,.34c-.19.1-.39.28-.58.29a1.5,1.5,0,0,1-1.32-1C512.67,22.6,512.73,22.36,513,22.33Zm-.62-6.24-.15.22-.09-.24ZM510.8,8.14c-.13-.06,0,.08-.08.09l-.16-.17ZM509.68,13a4,4,0,0,1,.54.38c.06.05,0,.23,0,.33-.12.31-.33.36-.57.12a5.47,5.47,0,0,1-.45-.51Zm-2.52,1.51a4,4,0,0,1-.43-.38.36.36,0,0,1-.07-.31,4.25,4.25,0,0,1,.32-.54,3.23,3.23,0,0,1,.45.38c.06.07.05.2.07.3S507.27,14.35,507.16,14.54Zm.3-5.11a4.15,4.15,0,0,1,.75.4l-1.25.6h0a1.93,1.93,0,0,1-.13-.5A.52.52,0,0,1,507.46,9.43Zm-.94.66a1.12,1.12,0,0,1,.41.35,4.09,4.09,0,0,1-.61.1c-.07,0-.14-.1-.22-.15C506.25,10.28,506.43,10.06,506.52,10.09ZM487.66,20.46a.71.71,0,0,1-.91.18c-.1-.05-.26-.16-.24-.22,0-.21.08-.48.23-.59.42-.33.9-.59,2-1.31C488.12,19.68,487.93,20.1,487.66,20.46Zm7.21-6.34c-.81,0-1.62,0-2.43,0,.05-.77,1.19-1.44,0-2.13a2.54,2.54,0,0,1,.36-.5c.05-.06.22,0,.33,0l1,.2c.12.71.86,1,1.14,1.6C495.37,13.56,495.16,14.11,494.87,14.12ZM494,10c0-.16.22-.41.4-.49a.94.94,0,0,1,.66,0,1.12,1.12,0,0,1,.49.45c.63,1,.45,1.35-.74,1.46a5.4,5.4,0,0,0-.58.1A13.63,13.63,0,0,1,494,10ZM496,27.18a5.24,5.24,0,0,1-.51-.3,4,4,0,0,1,.57-.16s.11.17.15.24S496,27.19,496,27.18Zm2.07-2.31,0-.17.15.12Zm6.52-.07c-.47.33-1.6-.15-1.62-.68,0-.1.32-.21.49-.32a1.18,1.18,0,0,1,1.21.43A.57.57,0,0,1,504.59,24.8Zm-.26-19.52c.19,0,.41.13.61.21,0,.11,0,.25-.06.33s-.35.15-.58-.06S504,5.31,504.33,5.28Zm-.42,7.4c0-.07.15-.1.23-.15l.23.58c-.07.07-.13.19-.22.22C503.9,13.42,503.74,13,503.91,12.68Zm0,2.61c.07.05.11.16.17.24s0,.25-.09.32a1.43,1.43,0,0,1-1.55.48.65.65,0,0,1-.38-.46.75.75,0,0,1,.25-.59A1.29,1.29,0,0,1,503.87,15.29Zm-2.61-6.13a8.92,8.92,0,0,1,1.15-.33c-.41.39,0,.84.11,1.3a.55.55,0,0,1-.29.47c-.58.1-1.35-.43-1.33-.92A.7.7,0,0,1,501.26,9.16Zm-.88,3.94.4.32a2.47,2.47,0,0,1-.42.37s-.19-.12-.23-.21A.31.31,0,0,1,500.38,13.1Zm-1.7-8a1.21,1.21,0,0,1,1.24,1.12,1.11,1.11,0,0,1-.82,1c-.19,0-.54-.07-.59-.2a3.65,3.65,0,0,1-.32-1.32C498.2,5.42,498.55,5.2,498.68,5.05Zm-.76,4.46c.3-.07.46.07.43.35,0,.11-.11.2-.17.3l-.48-.42C497.78,9.66,497.84,9.54,497.92,9.51Zm.12,12c.18,0,.36.23.54.36-.19.12-.38.24-.58.35l-.52-.37C497.66,21.71,497.85,21.49,498,21.5ZM494.3,6.64c.58,0,1.17,0,1.75,0,.1,0,.21.34.26.54a.3.3,0,0,1-.17.27c-.58.14-1.16.27-1.74.35a1.43,1.43,0,0,1-1.26-.5c-.46-.44-.07-.83,0-1.24A1.16,1.16,0,0,0,494.3,6.64ZM491.42,6l1.72.07h0c-.56.14-1.11.29-1.67.42-.09,0-.27,0-.3-.08C491,6.07,491.13,5.94,491.42,6Zm0,2.81a2,2,0,0,1,.62.14,1.82,1.82,0,0,1-.34.51.34.34,0,0,1-.55-.17C491,9,491.11,8.79,491.39,8.77Zm-2.95.05c.09,0,.16.15.24.23-.08.08-.17.22-.26.21s-.16-.15-.24-.23C488.27,9,488.36,8.82,488.44,8.82Zm-.68-5,.06.19-.17,0ZM488.81,12a1.12,1.12,0,0,1,1.25.41,1,1,0,0,1,0,1.31.63.63,0,0,1-.93.16c-.09-.07-.16-.17-.25-.25l-.66-.54c-.59.31-1.21.66-1.86,1a1.11,1.11,0,0,1-.69.1.93.93,0,0,1-.51-.41.36.36,0,0,1,.21-.56l2-.73Zm-2-6.23c.18.08.5.13.52.23a2.87,2.87,0,0,1-.08.92c0,.08-.18.13-.28.19a3.55,3.55,0,0,1-.47-.82C486.5,6.13,486.74,5.92,486.85,5.74Zm-1.42,3c.17.08.24.35.35.53,0,.72-.55.95-1.06,1.22a.48.48,0,0,1-.35,0c-.28-.1-.36-.28-.24-.5a7.73,7.73,0,0,1,.67-1.19A.71.71,0,0,1,485.43,8.77Zm-1.38-2.56c.07.09.21.18.2.26a1.86,1.86,0,0,1-.15.56s-.24,0-.25,0a1.89,1.89,0,0,1,0-.58C483.82,6.36,484,6.29,484.05,6.21Zm-.61-2.29-.14.22-.09-.24Zm-5.92,20.25a.91.91,0,0,1-1.21-.47.83.83,0,0,1-.05-.32,1.29,1.29,0,0,1,1.52-.65A.43.43,0,0,1,478,23,1,1,0,0,1,477.52,24.17Zm-.13-5.3c.06.07.17.15.17.21s-.17.19-.2.17C477.1,19.12,477.12,19,477.39,18.87Zm.41-2.77c-.18,0-.32-.29-.48-.45.15-.13.28-.36.43-.37.59,0,1.17,0,1.76,0A1.66,1.66,0,0,1,477.8,16.1Zm4.42-.63c.09,0,.24,0,.36.06a4.23,4.23,0,0,1-.25.62.42.42,0,0,1-.3.18c-.91,0-1.19.62-1.33,1.35,0,.05-.26.13-.31.09a5,5,0,0,1-.8-2.21.74.74,0,0,1,0-.21C480.42,16.23,481.31,15.86,482.22,15.47Zm-1.73-4.13a.64.64,0,0,1,.59.21,1.5,1.5,0,0,1-.78,1.4c-.1,0-.25-.08-.28-.15A1.06,1.06,0,0,1,480.49,11.34Zm.55-4a1.2,1.2,0,0,1,.29.19,1.32,1.32,0,0,1,0,.34,2,2,0,0,1-1.57,1.22c-.12,0-.41-.22-.43-.38C479.11,7.61,479.91,7,481,7.32ZM479.66,4c.16.11.17.41.25.62-.07.41-.39.67-.74.53a.79.79,0,0,1-.45-.43C478.63,4.32,479.35,3.77,479.66,4Zm-4.43,0-.13.18L475,4Zm-.3,6.66c.4-1,1.09-1.27,1.95-.8a8.26,8.26,0,0,1,1.12.85h.06l-.07,0-.16.24c-.07-.08-.08-.14-.05-.18l-2.43.61c-.1,0-.31,0-.33-.1S474.85,10.8,474.93,10.63Zm-1.27,3a.41.41,0,0,1,.26-.22l2.35-.38c.17.15.29.21.29.27a.47.47,0,0,1-.11.33,3.9,3.9,0,0,1-2.64.83c-.09,0-.27-.13-.27-.21A1.9,1.9,0,0,1,473.66,13.66Zm-.56,9.13s.21.33.32.5c0,.41-.31.68-.65.61s-.73-.5-.53-.7A2.08,2.08,0,0,1,473.1,22.79Zm-1.24-12.51a.8.8,0,0,1,.6.17,2.06,2.06,0,0,1,.34.58c0,.09-.05.25-.1.27s-.45.14-.6.07-.27-.35-.39-.53S471.58,10.36,471.86,10.28Zm-1.34-4.81c.29-.16.5-.06.48.22a6.88,6.88,0,0,1-.13.77,5.27,5.27,0,0,1-.43-.72A.27.27,0,0,1,470.52,5.47ZM470.06,20a.87.87,0,0,1,.94.23.66.66,0,0,1,.15.58c-.06.17-.32.27-.57.47a3.82,3.82,0,0,1-.78-.5A.48.48,0,0,1,470.06,20Zm-39.57,4.46a.58.58,0,0,1-.35-.06c-.05,0-.08-.25,0-.27s.38-.26.52-.22a5.22,5.22,0,0,1,.88.45C431.16,24.37,430.82,24.41,430.49,24.43Zm3.47,1.3c-.06.27-.69.31-.94.06a5.83,5.83,0,0,1-.71-.79c-.21-.29-.34-.64-.77-.67a4.65,4.65,0,0,0,0-.65c0-.25.23-.44.47-.26a18.91,18.91,0,0,1,1.9,1.67C434,25.2,434,25.52,434,25.73Zm.26-6.42c-.1,0-.28.09-.31.05-.65-.81-1.72-1.37-1.62-2.61,0-.11.09-.28.15-.29s.51-.05.62.07a2,2,0,0,1,.58.88,4.4,4.4,0,0,0,.67,1.63C434.35,19.09,434.26,19.22,434.22,19.31Zm3-.22.12-.19.07.21Zm1.58,5.9c-.21.33-.86.36-.87.07a.93.93,0,0,1,.19-.61,1.47,1.47,0,0,1,.6-.34s.15.15.23.23A1.93,1.93,0,0,1,438.77,25Zm1.65,2.39a.61.61,0,0,1-.57-.07,3.4,3.4,0,0,1-.48-.83.28.28,0,0,1,.07-.27c.21-.08.49-.21.63-.13a3.33,3.33,0,0,1,.65.65C440.6,27,440.57,27.26,440.42,27.38Zm2.33,1.83c-.29.11-.52,0-.53-.31a2.49,2.49,0,0,1,.18-.63c.19.12.43.19.55.35A.37.37,0,0,1,442.75,29.21Zm-.47-4.12c0-.05.13-.13.2-.19a4.15,4.15,0,0,1,.45.49s-.05.2-.12.25a.49.49,0,0,1-.32,0A2,2,0,0,1,442.28,25.09Zm5,.22a1.05,1.05,0,0,1-.18.25c-.13-.09-.39-.22-.38-.28a1.89,1.89,0,0,1,.31-.55,1.78,1.78,0,0,1,.22.26A.58.58,0,0,1,447.29,25.31Zm3.69.12c-.4.21-.68,0-1-.22a.69.69,0,0,1-.34-.88c.12-.25.45-.4.61-.54.27,0,.39,0,.5,0,.52.09.94.5.89.89S451.29,25.26,451,25.43Zm.89,6.09c-.18-.07-.3-.29-.42-.46,0,0,.16-.21.23-.21a1,1,0,0,1,.62.18,1,1,0,0,1,.13.53A1.47,1.47,0,0,1,451.87,31.52Zm.76.36a.62.62,0,0,1-.07-.23c.23,0,.33.13.29.3C452.77,31.93,452.66,31.93,452.63,31.88ZM466.15,6c0,.36-.26.26-.45.23Zm-.58,5.68,2.74,1a5.53,5.53,0,0,1-.59,2.86c-.18-.39-.3-.65-.4-.92s-.18-.68-.33-1a.93.93,0,0,0-1.26-.33c-.45.33-.86.7-1.28,1.06A4,4,0,0,1,465.57,11.63Zm-2.05,3.07a.68.68,0,0,1,.85-.22,7.87,7.87,0,0,1,.48.84c.27.58.2,1.18-.12,1.19a1.31,1.31,0,0,1-1.2-.57A.93.93,0,0,1,463.52,14.7Zm-1.67-4.58-.07.21-.09-.2Zm-.48-5.5s.05.11.08.17a1.38,1.38,0,0,1-.26.06s-.05-.12-.07-.19A.55.55,0,0,1,461.37,4.62Zm.22,12.9c1,.49,1.15.79.83,1.28a15,15,0,0,1-1,1.5c-.63.72-1.33,1.39-2,2.08-.22-.24-.47-.39-.5-.56a5.46,5.46,0,0,0-.66-2.39.6.6,0,0,1,0-.61c.34-.28.58.06.88.22a1,1,0,0,0,1.33-.12C460.88,18.46,461.23,18,461.59,17.52ZM459,4.89a1.87,1.87,0,0,1,.27.57.82.82,0,0,1-.26.2c-.09,0-.27,0-.3-.06a1,1,0,0,1-.2-.57C458.5,4.74,458.75,4.68,459,4.89Zm-1.6,3.21c.06.08.18.15.17.22s-.17.19-.2.18C457.05,8.36,457.07,8.22,457.35,8.1Zm.42,2.85c.6-.56,1.11-1.22,1.67-1.85.57.53.24,1.14.4,1.66s.42,1.08.53,1.64c.06.29-.17.28-.49.12a.88.88,0,0,0-1.26.28,7.16,7.16,0,0,1-.63.8L455.54,13c0-.1,0-.2,0-.24C456.29,12.14,457.08,11.59,457.77,11Zm-2.95-4.13c.07-.14.35-.17.54-.25s.28.07.28.12,0,.4-.09.48a1.66,1.66,0,0,1-.58.2C454.91,7.18,454.75,6.94,454.82,6.82Zm-.37,23.43a15.2,15.2,0,0,0,.61-1.56c.32.84.64,1.59.88,2.36,0,.09-.28.42-.42.41a1.9,1.9,0,0,1-1-.29C454.25,31,454.28,30.61,454.45,30.25ZM452.52,3.89l0,.22L452.2,4ZM452,7.46a1.81,1.81,0,0,1,1.41,1.39c0,.09,0,.26,0,.29s-.45.26-.62.21C451.87,9.08,451.77,8.79,452,7.46Zm1.74,4.41c-.19.11-.39.29-.57.29s-.36-.2-.54-.32c.18-.1.37-.29.55-.28S453.55,11.76,453.74,11.87Zm-3.69,2.52a.67.67,0,0,1,.78-.46.92.92,0,0,1,.55.36.64.64,0,0,1,.1.57c-.1.15-.38.2-.58.29l-.34,0C450.15,15,449.92,14.68,450.05,14.39Zm-.3,2.35a.41.41,0,0,1,.61-.22,5.59,5.59,0,0,1,.65.32c1.1.69,1.45,1.85,2,2.9a1.55,1.55,0,0,1-.64,2.15,1,1,0,0,1-1.31,0c-.18-.17-.31-.38-.47-.56a3,3,0,0,0-.24-.26.86.86,0,0,0-1-.14c-.52.27-1,.63-1.45.92-.86-.53-.48-1.4-.86-2l-1.1-1.71c.21,0,.45-.08.56,0A9,9,0,0,0,450,19.84a2,2,0,0,1,.32.18c.54.22,1.17.11,1.25-.23a1.23,1.23,0,0,0-.46-1.26c-.45-.39-.95-.74-1.37-1.15A.74.74,0,0,1,449.75,16.74Zm-3.59-7.11c1,.79,1.78,1.61,3,1.65.09,0,.29.4.25.57-.15.56-.39,1.11-.6,1.67a3,3,0,0,1-.15.31,1.58,1.58,0,0,1-1.55.75c-.63-.19-.32-.73-.26-1.17,0-.27-.14-.44-.44-.44a.42.42,0,0,0-.33.14c-.12.2-.17.44-.28.65a1.17,1.17,0,0,1-.39.54,1.15,1.15,0,0,1-.69,0,.34.34,0,0,1-.18-.25,6,6,0,0,1,.69-2.3A4.54,4.54,0,0,0,446.16,9.63Zm-2-2.49a2.41,2.41,0,0,1,.68.2.39.39,0,0,1,.24.59c-.21.69-.79.84-1.38.32a1.3,1.3,0,0,1-.33-.61C443.27,7.39,443.73,7.09,444.12,7.14Zm-1.27,5.29a.91.91,0,0,1,.31.09c0,.08-.07.23-.11.23a.94.94,0,0,1-.31-.1C442.78,12.57,442.81,12.43,442.85,12.43Zm-.56,3.82a1.15,1.15,0,0,0,1.44.72c1.31-.31,1.32-.31,1.93.86a1.8,1.8,0,0,1,.08.21,3,3,0,0,0-.94-.09.79.79,0,0,0-.5,1.13c.36.45.77.88,1.26,1.42-.82.55-1.58,1.09-2.37,1.57-.06,0-.49-.24-.51-.4a21.58,21.58,0,0,0-.19-2.8,20.82,20.82,0,0,0-1.11-2.64,2.67,2.67,0,0,1-.14-1.05c0-.15.24-.32.41-.43s.3.06.32.13C442.1,15.33,442.14,15.81,442.29,16.25Zm-1.45-8.34c.06-.09.19-.13.37-.24.24.19.6.35.75.62s-.72,2-1.22,2.29c-.06,0-.23,0-.32-.08s-.24-.17-.25-.26A3.23,3.23,0,0,1,440.84,7.91Zm-1.25,11.75c.25-.32.76-.56.83-.36a5.24,5.24,0,0,1,.19.69,9.5,9.5,0,0,1-.34,1.32c0,.13-.38.17-.59.2s-.22-.12-.27-.21A1.44,1.44,0,0,1,439.59,19.66Zm-.69-2.84a2.13,2.13,0,0,1-1.31-1.21c-.19-.43.06-1.18.44-1.14a1.35,1.35,0,0,1,1,.4A1.5,1.5,0,0,1,438.9,16.82Zm-.26-4.13,0-.26.25.15Zm-1.76-5.28a1.9,1.9,0,0,1,1.58-.69c.09,0,.16.17.24.26a1.32,1.32,0,0,1-1.63.95.47.47,0,0,1-.27-.23A.32.32,0,0,1,436.88,7.41Zm-.66,3.1a.9.9,0,0,1,.68,0c.18.08.27.34.38.49-.18.91-.34,1.8-.53,2.68,0,.1-.19.26-.24.24-.21-.07-.54-.15-.59-.3a9.21,9.21,0,0,1-.46-2A1.08,1.08,0,0,1,436.22,10.51Zm-1.39,4.6c.12-.22.35-.26.56,0a5.43,5.43,0,0,1,.54.81c-.14.25-.2.5-.36.59a.66.66,0,0,1-.6-.08A1.13,1.13,0,0,1,434.83,15.11Zm-.46-8.35s.13.14.2.21-.2.2-.23.18C434,7,434.05,6.85,434.37,6.76Zm-1.9,2.74c0-.1.19-.26.24-.25.45.14.89.3,1.33.46a2.54,2.54,0,0,1-.19.44.78.78,0,0,1-1.38-.65Zm-3.12,0c.33-.06.62.15.73.68a2.68,2.68,0,0,1-.57.53c-.3.16-.6-.11-.66-.51A.57.57,0,0,1,429.35,9.51Zm-1.5,2.38c.19-.12.55-.24.63-.16a2,2,0,0,0,2.64.06c.63-.38,1-.22,1.59.35a.52.52,0,0,1-.12.85c-.56.2-1.13.38-1.58.53l-2.66-.58c-.11,0-.19-.13-.3-.18C427.75,12.62,427.6,12,427.85,11.89Zm.81,4.1c.07,0,.17.19.14.24a1,1,0,0,1-.36.47,2.11,2.11,0,0,1-.68.11,2.13,2.13,0,0,1-.69-.1.86.86,0,0,1-.38-.48c-.09-.31.3-.69.64-.62A10.56,10.56,0,0,1,428.66,16Zm-2.6-6.84a1.08,1.08,0,0,1,1.18-.45,1,1,0,0,1-.38,1.14c-.26.24-.88.19-.9-.07A1,1,0,0,1,426.06,9.15Zm-35,4.17a.74.74,0,0,1,.15-.6c.47-.52.95-.32,1.41,0a5.41,5.41,0,0,1-1,.81A.6.6,0,0,1,391.09,13.32Zm1.56-1.64c.19-.09.27.1.17.38a5.07,5.07,0,0,0-.13.56,1.5,1.5,0,0,1-.16-.43C392.5,12,392.54,11.73,392.65,11.68Zm3,16.93c0,.11-.31.15-.47.23,0-.19-.18-.45-.11-.54s.32-.14.51-.19A.92.92,0,0,1,395.61,28.61Zm2-.87a3.9,3.9,0,0,1-2,.31,3.66,3.66,0,0,0-.6-2.64,1.7,1.7,0,0,1,.11-2c.66-1,1.4-1.86,2.12-2.8.13.14.3.26.29.31-.53,1.28-1.08,2.55-1.65,3.9l2,2.05C398.15,27.11,398,27.63,397.63,27.74Zm4.76-.52a.44.44,0,0,1-.24-.19,5.39,5.39,0,0,1,.33-.5l.23.21C402.79,27,402.69,27.21,402.39,27.22Zm2.08,3.22c-.56.19-1.16-.37-1.22-1a.82.82,0,0,1,.59-.79c.59-.12,1.17.39,1.19,1.18C404.89,30,404.73,30.36,404.47,30.44Zm.57-4.09c-.42.15-.66-.1-.88-.41s-.15-.49.15-.57a.88.88,0,0,1,.66.09c.16.13.19.4.29.62C405.19,26.17,405.14,26.32,405,26.35Zm.32-4c0-.16.36-.43.45-.4,1,.36,1.86.61,2.3-.69.08-.25.34-.27.62-.18a.65.65,0,0,1,.35.86c-.25.39-.49.91-.87,1.07a9,9,0,0,1-1.91.4A1,1,0,0,1,405.36,22.35Zm4.79,8.42a3.59,3.59,0,0,0-2.95,1,.32.32,0,0,1-.29,0,.41.41,0,0,1-.27-.58,2.23,2.23,0,0,1,.3-.62,1.4,1.4,0,0,0-.1-1.92c-.18-.22-.11-.45.2-.52a.77.77,0,0,1,.61.17c.15.16.15.44.25.65a.89.89,0,0,0,.85.49c.94.07,1.54-.66,2.36-.84.12,0,.31.25.46.39A1.52,1.52,0,0,1,410.15,30.77Zm.2-6.75c0-.1.17-.16.32-.3a3.94,3.94,0,0,1,.72.69c.06.1-.15.37-.23.56a1.92,1.92,0,0,1-.33-.14C410.53,24.64,410.28,24.4,410.35,24Zm1.93,3.2s-.16-.15-.24-.23l.6-.26c.09.08.16.17.24.25A4,4,0,0,1,412.28,27.22Zm1.63-1.85a1.78,1.78,0,0,1,0-.61.44.44,0,0,1,.31,0,1,1,0,0,1,.43,1.15C414.2,26,414,25.7,413.91,25.37Zm1,1.07a.35.35,0,0,1-.24-.5.34.34,0,0,1,.48.28C415.16,26.28,415,26.46,414.91,26.44ZM418.78,14c-.28.05-.33-.09-.14-.36.08,0,.22.05.22.09S418.83,14,418.78,14Zm3.68,2.42c0,.1-.16.16-.25.24-.38,0-.94-.1-.9-.4.13-.75.66-.33,1.05-.16A.39.39,0,0,1,422.46,16.45Zm2.06-1.51,0-.08h.09Zm.06-10.41.53.29c-.07.08-.12.2-.21.25-.26.12-.45,0-.48-.26C424.41,4.72,424.52,4.62,424.58,4.53ZM422.21,11c.05-.09.18-.13.4-.28.66.33,1.39.66,2.09,1.05.1.06.11.45,0,.59a.78.78,0,0,1-.59.3,2.75,2.75,0,0,1-1.91-1.33A.35.35,0,0,1,422.21,11ZM420.9,7.67a.79.79,0,0,1,.91-.21A.41.41,0,0,1,422,8c-.14.41-.45.59-.76.45A.7.7,0,0,1,420.9,7.67Zm-1-4a.32.32,0,0,1,.29.06c.05,0,0,.18,0,.28s-.21.12-.28.1C419.67,4.05,419.64,3.87,419.9,3.71Zm.22,17.62a.79.79,0,0,1,.67,0c.18.08.26.35.38.53a1.62,1.62,0,0,1-.74,1.16.39.39,0,0,1-.33.05c-.17-.12-.43-.28-.44-.44A1.31,1.31,0,0,1,420.12,21.33Zm-2.25-12.5A8.12,8.12,0,0,0,419,11c.1.11,0,.42-.06.62s-.61.15-.9-.19c-.54-.63-1.1-1.25-1.61-1.9-.12-.15-.19-.53-.11-.59a2.16,2.16,0,0,1,.93-.41A.71.71,0,0,1,417.87,8.83Zm-2-2.65c.14-.07.4.07.61.11a1.38,1.38,0,0,1-.19.28c-.16.15-.35.27-.53.41-.07-.09-.22-.2-.2-.26S415.7,6.26,415.86,6.18ZM418.07,16a.52.52,0,0,1,.24.27.35.35,0,0,1-.14.3,2.77,2.77,0,0,1-.95.39,2.65,2.65,0,0,0-1.72.51.81.81,0,0,1-.95.23,1.36,1.36,0,0,1-.5-1.26.7.7,0,0,1,.46-.46,3.94,3.94,0,0,1,.95.05C416.43,16.42,417.23,15.53,418.07,16ZM413.89,13a.83.83,0,0,1,.52-.35c.38-.06.69.28.64.77a2.19,2.19,0,0,1-.76.33A.51.51,0,0,1,413.89,13ZM415.05,4l-.12.15L414.87,4ZM414,10.35a.31.31,0,0,1,.49.24c0,.07-.13.25-.15.24a3.28,3.28,0,0,1-.54-.24C413.86,10.51,413.91,10.4,414,10.35Zm-.12,9.89a1.65,1.65,0,0,1,.31.18l-2,1.81a2.23,2.23,0,0,1-.31.15c-.24.14-.89,0-1-.23a.85.85,0,0,1,0-.61A2.47,2.47,0,0,1,413.88,20.24Zm-1.76-13.3a.69.69,0,0,1,1,.16,5.48,5.48,0,0,1,.61.87c.15.37-.08.66-.4.89s-.66.28-.93,0-.62-.74-1-1.16A3.35,3.35,0,0,1,412.12,6.94Zm-.33,4.22c.3.19.44.6.22.83a2.36,2.36,0,0,1-.72.27,2.35,2.35,0,0,1-.27-.81C411,11.13,411.5,11,411.79,11.16Zm-.55,3.21a1,1,0,0,1,.05.35c-.08.08-.14.19-.23.24a3.51,3.51,0,0,1-2.44.42.73.73,0,0,1-.45-1.1,1.51,1.51,0,0,1,1.88-.63A1.7,1.7,0,0,1,411.24,14.37Zm-2.13-6.95.1.23-.24,0Zm-.69,2.25a1.51,1.51,0,0,1,1.4-.13c.07,0,.11.24.08.34-.25.75-1.14.78-1.61,1.3-.06-.18-.15-.37-.21-.58A.85.85,0,0,1,408.42,9.67Zm-.18,1.54c-.39.24-.78.48-1.19.7a.42.42,0,0,1-.33-.06,1.11,1.11,0,0,1,0-.65.73.73,0,0,1,.58-.29A4.67,4.67,0,0,1,408.24,11.21Zm-1.62-2.85c.17-.31.34-.29.48,0-.09.07-.18.2-.26.19S406.61,8.39,406.62,8.36Zm.26-4.58.24.25c-.09.07-.18.21-.26.2s-.16-.15-.24-.23ZM404.5,6.27c.08,0,.21.06.22.1a2.29,2.29,0,0,1-.06.58s-.2.07-.28,0-.19-.18-.17-.23A3.5,3.5,0,0,1,404.5,6.27Zm-1.3,4.43c.06,0,.13.15.2.23s0,.2-.07.3-.24,0-.27-.07C402.9,10.9,403,10.71,403.2,10.7ZM403,13.87a4.94,4.94,0,0,1,1.38-.25.73.73,0,0,1,.58.33c.48,2,2.27,3.33,2.5,5.37a.39.39,0,0,1-.16.3.36.36,0,0,1-.3,0c-.27-.21-.52-.45-.78-.67a6.12,6.12,0,0,1-2-2.84c-.11-.41-.6-.71-.9-1.08S402.68,14,403,13.87Zm-.59,4.38a9.92,9.92,0,0,0,1.6,1.39c.09.08,0,.4-.08.59a.42.42,0,0,1-.29.18c-.23,0-.55.06-.68-.06-.71-.62-1.4-1.27-2.05-2a1.25,1.25,0,0,1-.18-1.33,1.19,1.19,0,0,1,1.05-.77A6.62,6.62,0,0,0,402.36,18.25ZM401.24,5.36c.09,0,.17.1.26.16-.1,0-.2.12-.3.11s-.16-.11-.25-.16C401.05,5.43,401.15,5.35,401.24,5.36Zm-4,3.48a5.82,5.82,0,0,0,2.41-.69,1.49,1.49,0,0,1,1.39,0,.82.82,0,0,1,.57.79c0,.31-.35.77-.61.77-.48,0-1,0-2.13,0L397,9.52c-.09,0-.18-.15-.27-.23C396.9,9.13,397,8.87,397.21,8.84Zm-.08,2.8a2.07,2.07,0,0,1,2.68,1.63,6.17,6.17,0,0,1-.06,1.05c-.06.65-.38,1.07-.78,1-.66-.12-1.07-.46-1-1.18l-1-.31c-.63-.21-.94-.5-.91-.88A1.35,1.35,0,0,1,397.13,11.64ZM395.8,15.5a1.36,1.36,0,0,1,1.39.94c-.7,0-1.38,0-2,.1s-1.42.31-2.14.34c-.24,0-.5-.38-.75-.58.6-.82,1-1.71,1.9-2.14C394.63,14.77,394.9,15.43,395.8,15.5ZM391.28,4.07c.26-.06.4.07.38.34-.05.09-.08.22-.16.25-.24.11-.38,0-.34-.31C391.17,4.25,391.22,4.08,391.28,4.07Zm-.2,3.48a3,3,0,0,1,3.37,1.24c.05.07,0,.2,0,.31s-.14.24-.2.23a24.88,24.88,0,0,1-2.72-.45c-.26-.06-.47-.47-.61-.77A.62.62,0,0,1,391.08,7.55Zm-17,14.4c.09,0,.19-.07.27,0a.59.59,0,0,1,.19.13Zm13.23-1c-.06.39.22.59.47.85.54.54.43,1-.27,1.26-.09,0-.27.07-.32,0s-.36-.35-.33-.49c.11-.56.29-1.11.45-1.66Zm-.63-3.36a2.74,2.74,0,0,1,.33,1c.13.79.2,1.58.29,2.37a1.12,1.12,0,0,1-1.22-.46,4.29,4.29,0,0,1-.72-2.62.71.71,0,0,1,.74-.56A1.05,1.05,0,0,1,386.71,17.56Zm-1.65-6.71c.46.11.67.37.6.73s-.39.65-.74.54-.66-.3-.62-.74A.62.62,0,0,1,385.06,10.85ZM383.77,14a.59.59,0,0,1,.06.57,4.08,4.08,0,0,1-.76.57,5.76,5.76,0,0,1-.66-.33.41.41,0,0,1,0-.29,3.36,3.36,0,0,1,.71-.7A.72.72,0,0,1,383.77,14Zm-2.11-7.88a4.12,4.12,0,0,1,.58-.85.7.7,0,0,1,1,.09.7.7,0,0,1-.19.92,5.92,5.92,0,0,1-.91.32C381.69,6.48,381.54,6.31,381.66,6.07Zm-1.36,4.24c.34.12.37.29.07.44a.37.37,0,0,1-.32-.06c-.06,0,0-.2-.05-.3S380.22,10.28,380.3,10.31Zm.64,17.47a23.66,23.66,0,0,1,1.66,2.14.32.32,0,0,1-.15.25c-.08.06-.26.12-.31.08a18.14,18.14,0,0,0-3.06-1.74A2.3,2.3,0,0,1,378,27.3C379,26.91,379.86,28.14,380.94,27.78Zm-3.35-.65.12.09h-.3C377.47,27.19,377.55,27.12,377.59,27.13Zm-1.25-17c-.08,0-.25-.17-.23-.2a3.16,3.16,0,0,1,.33-.51l.23.24C376.74,9.89,376.64,10.07,376.34,10.08Zm.17-3.83s-.17.15-.17.14-.23-.25-.35-.38C376.21,6,376.42,5.91,376.51,6.25ZM374.6,22a1.48,1.48,0,0,1-.27-.53c-.21-1-.38-2.09-.57-3.2,1.28.17,1.38,1.26,2.19,1.83Zm.79-8.26.36.3C375.24,14.25,375.34,14,375.39,13.78ZM373.34,5a.44.44,0,0,1,.35-.06,6.23,6.23,0,0,1,1.27.62,1.3,1.3,0,0,1,.18.15,1.6,1.6,0,0,0-.61,0,3.3,3.3,0,0,1-1.08.1c-.1,0-.2-.35-.24-.55A.36.36,0,0,1,373.34,5Zm-2.06,7.55a1.76,1.76,0,0,1-.14-1.82A1.92,1.92,0,0,1,371.28,12.53Zm-.23-1.89a.22.22,0,0,0,0-.08.2.2,0,0,1,0,.08Zm1.1,4.32c.05-.15.33-.24.51-.35.11.16.3.31.31.47,0,.42-.41.72-.63.48A.74.74,0,0,1,372.15,15Zm-1.52-8.51a.74.74,0,0,1,.59-.23.65.65,0,0,1,.41.46A7.74,7.74,0,0,1,371.47,8a1.2,1.2,0,0,1-.93-.86A.8.8,0,0,1,370.63,6.45ZM369,28.29c-.11,0-.28,0-.34-.05a6.08,6.08,0,0,1-.91-1c-.08-.11.12-.4.23-.71l1.22,1.29C369.43,28.05,369.37,28.21,369,28.29ZM367.9,14.71c.06-.15.27-.24.42-.36.35,0,.77.39.64.6a.83.83,0,0,1-.48.32C368.07,15.34,367.76,15,367.9,14.71ZM369,8.32c.08.25-.05.35-.31.26a.23.23,0,0,1-.13-.21c0-.07.13-.12.21-.17S369,8.26,369,8.32Zm-.9-3a.6.6,0,0,1,.67.58.39.39,0,0,1-.15.28c-.25.17-.64,0-.82-.41S367.8,5.34,368.1,5.28Zm-.77,5a1.74,1.74,0,0,1,1.38,1.73c-.07.36-.6.92-1,.88a1.51,1.51,0,0,1-1.21-2A1,1,0,0,1,367.33,10.32Zm-1-6.36.28.14-.31.09Zm-.91,12.37-.22.19c-.06-.07-.19-.18-.18-.21C365.19,16,365.33,16.05,365.45,16.33Zm-13.13-.63c-.31.19-.79,0-.8-.26a3.75,3.75,0,0,1,.32-1,4.48,4.48,0,0,1,.73.74C352.62,15.3,352.46,15.61,352.32,15.7Zm2.06,1.87a.74.74,0,0,1-.61-.22.66.66,0,0,1-.13-.61,5.74,5.74,0,0,1,.75-1.16.76.76,0,0,1,.55-.29c.17,0,.32.29.4.48a3.14,3.14,0,0,1,.17.67A1.2,1.2,0,0,1,354.38,17.57Zm2.3,8.2c-.19-.09-.47-.13-.55-.28s.13-.35.22-.53c.26-.1.49,0,.51.25A1.41,1.41,0,0,1,356.68,25.77Zm.66-5.86c0,.06-.23,0-.35,0s-.18-.22-.17-.31.06-.53.21-.64a.36.36,0,0,1,.57.27A1.25,1.25,0,0,1,357.34,19.91Zm1.92-3.45c-.07,0-.14-.12-.2-.19s.14-.17.21-.17.14.13.2.19S359.32,16.47,359.26,16.46Zm3.15,1.22a1.48,1.48,0,0,1-1.35,1,.75.75,0,0,1-.33-.07c-.24-.11-.26-.31-.07-.56a2.19,2.19,0,0,1,1.47-.94c.07,0,.16.16.25.25S362.45,17.59,362.41,17.68Zm1.34-6.15c.07.06.17.1.19.17a.86.86,0,0,1,0,.27c-.08,0-.2.06-.24,0a.32.32,0,0,1-.08-.25C363.61,11.67,363.7,11.6,363.75,11.53ZM362.81,13a1.14,1.14,0,0,1,.59,1.44c0,.15-.34.36-.44.33a1.21,1.21,0,0,1-.77-1.63c0-.09.18-.14.27-.21A1.28,1.28,0,0,1,362.81,13Zm-.48-3.58a1.27,1.27,0,0,1,0,1,.87.87,0,0,1-1.16.46h0c-.5-.46-1-.92-1.52-1.36a1.09,1.09,0,0,1-.5-.8l1.73-.79C361.77,8.16,362,8.86,362.33,9.44Zm-2.95-4a2.13,2.13,0,0,1,.25.6c0,.1-.27.2-.41.3a1.51,1.51,0,0,1-.24-.56C359,5.67,359.23,5.57,359.38,5.45ZM357,7.88c.64-.57,1-.56,1.45,0a7.89,7.89,0,0,1,.51.77l-1.94,0c-.08,0-.25-.12-.24-.16C356.85,8.27,356.87,8,357,7.88Zm.13,2.88a1.61,1.61,0,0,1,1.73-.17,11.55,11.55,0,0,1,1.36,1.06h0c-.15.17-.28.47-.44.49a1.51,1.51,0,0,0-1.55,1.95,1.75,1.75,0,0,1-.15.68.41.41,0,0,1-.58.3,1.32,1.32,0,0,1-.63-.29.86.86,0,0,1-.15-.66,4.38,4.38,0,0,0,0-2.46A.78.78,0,0,1,357.15,10.76ZM355.21,6A9.58,9.58,0,0,1,356,4.9c.08-.08.39,0,.57,0s.11.19.17.31c.08.67-.42,1-.93,1.24a.5.5,0,0,1-.34,0C355.16,6.43,355.08,6.23,355.21,6ZM355,10.78a.69.69,0,0,1,0,.64,2.19,2.19,0,0,1-2.13,1,2,2,0,0,1-.6-.36.92.92,0,0,1-.25-.61.66.66,0,0,1,.4-.48,9.63,9.63,0,0,0,2.05-.52C354.59,10.42,354.91,10.62,355,10.78ZM351.64,1.9c.44-.76,1.45-1.21,2-.36.38.58,1,1,1.09,1.91-.19.13-.45.47-.7.47a3,3,0,0,1-2.36-1.38A.69.69,0,0,1,351.64,1.9Zm-.37,4.51c.3-.39.3-.39,1.34-.88a2.51,2.51,0,0,1-.39,2.22.63.63,0,0,1-.6.06C351,7.42,350.88,6.92,351.27,6.41ZM315,21.57a.31.31,0,0,1-.28,0c-.19-.23-.14-.44.14-.48a6.51,6.51,0,0,1,.77,0C315.43,21.22,315.23,21.4,315,21.57Zm1.06-.66H316l.19-.15C316.16,20.82,316.13,20.89,316.07,20.91Zm-.12-9a.32.32,0,0,1,.07-.29c.17-.11.45-.29.55-.23a12.57,12.57,0,0,1,1.05.75,7,7,0,0,1-1.2.15C316.26,12.29,316.08,12.06,316,11.91ZM317.69,18c-.43,0-.61-.28-.77-.6s.06-.59.55-.66a.63.63,0,0,1,.75.55A.58.58,0,0,1,317.69,18Zm2.65,7c0,.07-.2.09-.3.12s-.2-.16-.2-.23c0-.31.21-.39.42-.2A.35.35,0,0,1,320.34,24.93Zm7.93-8.31a.84.84,0,0,1-.72.66,8.06,8.06,0,0,1-1.3,0,6.07,6.07,0,0,1,0-1c.07-.66.56-.89,1.29-.68C328.09,15.82,328.37,16.19,328.27,16.62Zm-.33-2.86.09.09h0Zm5.2,2.85c-.13,0-.24-.22-.36-.35a1.18,1.18,0,0,1,.25-.19.35.35,0,0,1,.52.25C333.41,16.43,333.27,16.62,333.14,16.61Zm4.87,6a2.94,2.94,0,0,1-1,1.79,2.22,2.22,0,0,1-.59-.38c-.85-1-.53-1.9.85-2.32a.77.77,0,0,1,.58.27A.79.79,0,0,1,338,22.61Zm3.63-6.49a2,2,0,0,1-.27.22,8.94,8.94,0,0,0-3.15-1.56.7.7,0,0,1,0-.62,1.26,1.26,0,0,1,1.89-.22c.56.59,1.07,1.23,1.59,1.86C341.73,15.86,341.66,16,341.64,16.12Zm-2.3-4.8a2.58,2.58,0,0,1,.67-.14c.05,0,.17.15.15.2-.06.25-.69.41-.86.21S339.3,11.33,339.34,11.32Zm4,2.08a.57.57,0,0,1-.79.41.8.8,0,0,1-.38-.47c-.09-.34.25-.64.65-.65A.55.55,0,0,1,343.3,13.4Zm1.35-1.84a.32.32,0,0,1-.27.09c-.21-.16-.24-.41,0-.54a1,1,0,0,1,.5-.06A2.87,2.87,0,0,1,344.65,11.56Zm1,2.68s-.05-.11-.07-.17l.25-.08.07.2A.74.74,0,0,1,345.64,14.24Zm2.68,6.56c-.05.09-.17.22-.26.22a.42.42,0,0,1-.27-.22,5.17,5.17,0,0,1-.19-.64c0-.4.42-.76.63-.57a1,1,0,0,1,.33.58A1.23,1.23,0,0,1,348.32,20.8ZM349.46,4c0-.06.19-.1.29-.16.12.17.32.32.35.5a.71.71,0,0,1-.46.79s-.22-.14-.22-.22A4.63,4.63,0,0,1,349.46,4Zm-2.63,1.82a6.66,6.66,0,0,1,2.89,1.33.41.41,0,0,1,.08.33,2.48,2.48,0,0,1-1.92,1.36,1,1,0,0,1-.66-.25,3.46,3.46,0,0,1-.86-2.26C346.35,6.18,346.65,6,346.83,5.83Zm-6.28,1.38c.19-.31.35-.62.56-.91a1.13,1.13,0,0,1,1.3-.36c1.09.72,2.51,1.08,3,2.48.92.77,1.46,1.91,2.61,2.46.2.09.3.36.46.54.43.5.45,1.36,0,1.59a1.21,1.21,0,0,1-1.31-.37c-.43-.57-.81-1.17-1.23-1.79l-1,.1c-.49-.74-1-1.5-1.47-2.24-.29-.44-1-.88-1.15-.73a5.14,5.14,0,0,0-.66.74c-.15.18-.25.44-.44.54a1.56,1.56,0,0,1-1,.32,6.08,6.08,0,0,1-2.94-1.13l.61-1.55a8.21,8.21,0,0,1,.8.58C339.64,8.37,339.87,8.34,340.55,7.21Zm-5.63-2.89a6,6,0,0,1,.74,0l.69-1.72.77.72c1.56,1.45,1.58,1.48.8,3.48a3.8,3.8,0,0,0-.84-.55c-.17-.07-.6,0-.64.17-.44,1.27-.63,2.51.67,3.49a1.72,1.72,0,0,1,.59.87,1.25,1.25,0,0,1-.3,1.3c-.08.07-.24.14-.32.1a26,26,0,0,1-2-2.42,7,7,0,0,1-.73-3.06A4.27,4.27,0,0,0,334.2,5C334.11,4.63,334.52,4.35,334.92,4.32ZM333.48,9a.69.69,0,0,1,.16.62,1.3,1.3,0,0,0,.5,1.8c.77.58.29,1.64-.74,1.75a13.94,13.94,0,0,1-1.71,0,.77.77,0,0,0,.75.53,6.71,6.71,0,0,1,4.13,1.1,1.35,1.35,0,0,1-.08.41c-.43.84-1.1,1.13-1.7.61a3.09,3.09,0,0,0-2.24-1,2.72,2.72,0,0,1-1.69-.59c-.68-.48-1.38-.93-2-1.36,0-.78.8-1.27.57-2.07a.51.51,0,0,1,.66-.62c1.34.45,2-.48,2.84-1.14A.63.63,0,0,1,333.48,9Zm-4.77-5.74a.47.47,0,0,1,.29-.16,2.32,2.32,0,0,1,2,.62.62.62,0,0,1,.11.59c-.11.16-.4.21-.61.31-.59-.36-1.18-.71-1.75-1.08C328.66,3.47,328.66,3.29,328.71,3.22Zm-.9,2.2c.2-.08.53-.21.63-.12a17.3,17.3,0,0,0,3.36,1.88c.15.08.21.39.22.6s-.19.42-.5.39l-.39,0a1.43,1.43,0,0,0-1.64.1,1.66,1.66,0,0,1-1.26.54c-.2,0-.55-.29-.52-.37a5,5,0,0,0,0-2.72A.32.32,0,0,1,327.81,5.42Zm-1.66,5.66a.74.74,0,0,1,.63-.2.75.75,0,0,1,.42.48,3.15,3.15,0,0,1,0,.69,3.47,3.47,0,0,0,.14,1,2.38,2.38,0,0,0,.55.65c-.65,0-1.41.44-1.93-.38A1.82,1.82,0,0,1,326.15,11.08Zm-.49,11.52a3.65,3.65,0,0,1-1.75,1.65.37.37,0,0,1-.34-.05,2.85,2.85,0,0,1-.53-.83.76.76,0,0,1,.23-.57c.92.08,1.47-.72,2.28-1C325.6,22.17,325.74,22.42,325.66,22.6Zm-2.78-11.93,0-.17.18.11Zm.06-3.19c.49-.35,1-.66,1.61-.25a2,2,0,0,1,.94,1.42c0,.22,0,.46,0,.69,0,.41-.23.84-.45.79a2.88,2.88,0,0,1-.62-.28.56.56,0,0,1-.21-.27,3.74,3.74,0,0,0-2.27-2.08A1,1,0,0,0,322.94,7.48Zm-3.55-2.1a1.08,1.08,0,0,1,1.29-.11,6.38,6.38,0,0,1,.86,1,1.3,1.3,0,0,1-1.66.33,2.07,2.07,0,0,1-.7-.65C319,5.74,319.16,5.53,319.39,5.38Zm-1.27,3A16.76,16.76,0,0,0,319.89,8c.67-.23,1.46,0,2.05-.52a.84.84,0,0,0,0,.31,1.07,1.07,0,0,1-.66,1.54l.07-.09c-.52.55-.85,1.12-.33,1.85a4.54,4.54,0,0,1,.36.6c.38.83-.34,1.73.35,2.64a7.07,7.07,0,0,1,.86,2.59,1,1,0,0,1-.15.56c-.57-.09-1.18-.14-1.27-.87s-.61-1.18-1.4-1.31c-.34-.06-.68-.18-1-.27a6.58,6.58,0,0,1-.93-2.82c.52.21,1,.44,1.55.61a1,1,0,0,0,.61-.12c.07,0,.11-.23.08-.33-.2-.66-.42-1.32-.63-2a3.78,3.78,0,0,0-2.12-.25c-.9,0-1.18-.57-1.45-1.2C316.6,8.74,317.35,8.51,318.12,8.33Zm-2.58,6.87c.12.14.24.21.26.3.06.29-.25.5-.62.41-.09,0-.16-.14-.24-.21Zm-1.49-5.41.05.19-.17,0Zm.16,7.28-.21.08,0-.2Zm.55,1.8c.17,0,.35.23.53.35a1.32,1.32,0,0,1-1,1.19.79.79,0,0,1-.59-.26.63.63,0,0,1,0-.57A1.34,1.34,0,0,1,314.76,18.87Zm-1.2-13.65a1.23,1.23,0,0,1-.38,1.4c-.57.5-1.18,1-1.77,1.45a.79.79,0,0,1-.86-.39c-.1-.18-.21-.55-.12-.62a19.89,19.89,0,0,1,2.17-1.71A2.08,2.08,0,0,1,313.56,5.22ZM309.63,4c.2,0,.39.19.58.29.84,0,1.7-.44,2.53.07l-2.53,0c.05.32.11.67-.32.78a.64.64,0,0,1-.75-.79A.6.6,0,0,1,309.63,4Zm0,4.55-.22,0,.13-.2Zm-1-2.39c.06,0,.14.15.22.23a4.79,4.79,0,0,1-.58.18c-.06,0-.15-.15-.22-.22A3,3,0,0,1,308.7,6.11ZM307.78,11a1,1,0,0,1,.51-.47,7,7,0,0,1,1.43-.37,1.59,1.59,0,0,0,1.43-1.4,3.28,3.28,0,0,1,.25-.58c1,.16,1.57.7,1.23,1.18-.72,1-.24,1.76.34,2.56,0,0,0,.25-.07.27a1.26,1.26,0,0,1-.66.16,1.32,1.32,0,0,1-.63-.35,2.1,2.1,0,0,0-3.22-.18.37.37,0,0,1-.61-.18A.94.94,0,0,1,307.78,11Zm.52,3.67c.22-.2.86,0,.84.29s-.06.74-.27.88a4.85,4.85,0,0,1-1.28.44c-.13,0-.26,0-.32-.1s-.13-.23-.1-.27A14.69,14.69,0,0,1,308.3,14.63Zm-1.76-.92a2.88,2.88,0,0,1-.27-.17,5.64,5.64,0,0,1,.31-.53c.08.07.2.13.24.22C306.94,13.5,306.84,13.66,306.54,13.71Zm.33-5.22c-.2.21-.42.46-.67.68-.06.06-.29.06-.31,0a1.11,1.11,0,0,1-.25-.6A1,1,0,0,1,306,8a2.11,2.11,0,0,1,.59-.26C306.69,8,306.77,8.19,306.87,8.49Zm-.95-4a.37.37,0,0,1,.16.26c0,.38-.17.58-.57.5a1.36,1.36,0,0,1-.08-.55A.31.31,0,0,1,305.92,4.45Zm-.45.82c0,.23-.13.47-.22.39C304.87,5.28,305.1,5.21,305.47,5.27Zm-4.8,22.89c-.23,0-.45-.57-.38-1.15,0-.12.25-.22.38-.33.06.08.18.16.19.25a6.29,6.29,0,0,1,0,1C300.87,28,300.75,28.08,300.67,28.16Zm2.77-20.73a1.94,1.94,0,0,1,.13-.3l.52.3c.08.26,0,.43-.31.44S303.4,7.7,303.44,7.43Zm.1,2.94s.12.14.19.23a2.66,2.66,0,0,1-.55.16c-.06,0-.14-.14-.21-.22A3.74,3.74,0,0,1,303.54,10.37Zm-.94,2.89c.45,0,.55.32.61.65s-.27.61-.62.64-.79-.29-.76-.86a1.88,1.88,0,0,1,.16-.53A4.31,4.31,0,0,0,302.6,13.26Zm-.76-7.72c.16.23,0,.4-.26.34s-.44-.27-.69-.31a4.58,4.58,0,0,1,.64-.15A.37.37,0,0,1,301.84,5.54ZM300,4.32a.68.68,0,0,1,.59-.07.59.59,0,0,1,.26.5,4.31,4.31,0,0,1-.33.81,9.26,9.26,0,0,1-1.05-.49A4,4,0,0,1,300,4.32Zm-1.42,1.42c.27-.22.56-.41.85-.62.42.87-.37,1.72-.12,2.7a4.81,4.81,0,0,1,2.07,2.62,5.86,5.86,0,0,0,.42,2.55.89.89,0,0,1-.62-.87,15.62,15.62,0,0,1,.19-1.66c-.33,0-.81.27-1,.15a18.77,18.77,0,0,1-2-2A2,2,0,0,1,298.62,5.74ZM296.5,18.28c.15.11.42.23.42.34a.6.6,0,0,1-.33.45.7.7,0,0,1-.59-.16C295.8,18.7,296.12,18.31,296.5,18.28Zm-1-10.58a4.54,4.54,0,0,1,.41.48c0,.06-.06.23-.14.29-.25.17-.49.09-.51-.21S295.44,7.89,295.52,7.7Zm-.35,6a.45.45,0,0,1,.61.26.37.37,0,0,1-.25.57c-.22-.08-.52-.11-.64-.27S294.89,13.79,295.17,13.69ZM294,11.25l.16.25-.18.24c-.06-.09-.15-.17-.15-.26S293.92,11.33,294,11.25Zm-2.86,2.8c-.21.06-.32-.1-.26-.38,0-.07.16-.11.24-.16l.15.27C291.21,13.87,291.19,14,291.12,14.05Zm.58,3.89A4,4,0,0,1,293.16,16a4.3,4.3,0,0,1-.61,2.6c0,.06-.24.09-.32.05a2,2,0,0,1-.51-.39A.38.38,0,0,1,291.7,17.94Zm-.91-7.61c.19.12.46.2.53.36.17.35-.1.8-.39.78s-.74-.47-.63-.75S290.62,10.46,290.79,10.33Zm-.47,5.54.18.56-.27.18a2.69,2.69,0,0,1-.14-.54C290.08,16,290.24,15.94,290.32,15.87ZM289.83,28a1.71,1.71,0,0,1,.22-.25l.36.43c-.13.12-.27.35-.39.34S289.69,28.29,289.83,28Zm-17.65-3.59a.38.38,0,0,1-.3-.07c-.05,0-.05-.14-.07-.22s.2-.1.28-.08C272.42,24.15,272.46,24.3,272.18,24.44Zm.9,7,.12-.17.08.19Zm0-12.59a.79.79,0,0,1-1,.18c-.51-.31-1.1-.55-1.15-1.27a3.19,3.19,0,0,1,1.73-.12c.48,0,.8.28.73.61A1.25,1.25,0,0,1,273.08,18.87Zm.94-4.56s.19,0,.21,0a.51.51,0,0,1,0,.22C274.06,14.58,274,14.5,274,14.31Zm.51.76c0-.14-.09-.28-.14-.42l.45.13Zm1.26,4.39c-.3-.07-.52-.69-.3-.85A6.6,6.6,0,0,0,277,16.77c.06-.1.41-.05.62,0s.13.16.22.29c-.47.77-.93,1.57-1.45,2.34C276.35,19.49,276,19.51,275.79,19.46Zm1.84,1.47a2.19,2.19,0,0,1,.8-.62c.34-.13.9.15.84.39a.89.89,0,0,1-.38.54,4.84,4.84,0,0,1-1,.31C277.78,21.3,277.57,21,277.63,20.93Zm1.46-5.41.26,0-.15.24Zm-.77,8,.2,0-.12.19Zm2.1,5.31-.23.25c-.42.35-.68.32-1.21-.06s-.63-.74-.43-.79a2.08,2.08,0,0,1,.66-.05,1,1,0,0,1,.32.12,5.06,5.06,0,0,0,.67.17C280.55,28.54,280.63,28.64,280.42,28.85Zm-.6-11.14a.3.3,0,0,1,.27.1c0,.07,0,.19,0,.29s-.2.09-.24.06C279.58,18,279.59,17.81,279.82,17.71Zm4.43,3.36a.63.63,0,0,1-.29-.47c0-.31.49-.59.72-.44s.2.34.29.52A.5.5,0,0,1,284.25,21.07Zm2.53,2.33a1.17,1.17,0,0,1-.57-.19s0-.25.05-.3a.71.71,0,0,1,.91-.09c.06.05.12.23.08.26S287,23.38,286.78,23.4Zm.24-9.26a1.75,1.75,0,0,1,1,1.35c0,.15-.23.34-.38.48a.43.43,0,0,1-.34.09,2,2,0,0,1-.62-.34c-.5-.46-1-1-1.49-1.45A1.6,1.6,0,0,1,287,14.14Zm-1.2-2.94c.2.1.16.34-.08.53A14.41,14.41,0,0,1,284.08,13c-.23.13-.63,0-1.09-.06.82-.69,1.49-1.29,2.21-1.85C285.31,11,285.64,11.1,285.82,11.2Zm-4.13-6.14a17.06,17.06,0,0,1,2.11-.51.79.79,0,0,1,.89.46c.21.47.11,1.22-.27,1.25-.95.07-.92,1-1.68,1.42l-1.71-1C280.85,5.79,281,5.28,281.69,5.06ZM281,6.72l-.06.14C280.78,6.7,280.8,6.66,281,6.72Zm.35,4.4c.12.06.19.43.12.59a1,1,0,0,1-.5.48,7,7,0,0,1-1,.38l-1.47.44c-.11-.4-.31-.75-.23-1a1.38,1.38,0,0,1,.66-.82A2.71,2.71,0,0,1,281.3,11.12Zm-2.73-7.5a3.87,3.87,0,0,1,1,0c.07,0,.13.14.19.22s0,.22,0,.3a1,1,0,0,1-1.18.39.62.62,0,0,1-.37-.47A.58.58,0,0,1,278.57,3.62Zm-3.35,2.21a.4.4,0,0,1,.58-.24c.12,0,.24,0,.46.1s.39,0,.63,0c.93-.06,1.23.63,1.58,1.24a.3.3,0,0,1-.07.28.46.46,0,0,1-.3.17,5.75,5.75,0,0,1-2.43-.65C275.37,6.6,275.11,6,275.22,5.83Zm1,4.9c.13.7.29,1.48.43,2.27a.41.41,0,0,1-.16.3.34.34,0,0,1-.31,0,6.89,6.89,0,0,1-1-1,2,2,0,0,0-2.53-.87c-.15.06-.43-.13-.63-.24s-.56-.31-.84-.47C272.79,10.47,274.42,10.06,276.21,10.73Zm-5.14,0v0h0Zm.05,3.7a.72.72,0,0,1,.59.24c.19.24.06.44-.26.5l-.62-.2C270.92,14.8,271,14.49,271.12,14.45Zm-23-3.35a.75.75,0,0,1-.87.06.3.3,0,0,1-.14-.23c0-.23.42-.34.85-.24.09,0,.16.12.23.19S248.2,11.06,248.15,11.1Zm3.26,9.63s-.19,0-.21,0a.72.72,0,0,1,0-.22C251.38,20.46,251.47,20.54,251.41,20.73Zm2.38,10.68c-.13.24-.25.23-.3-.05,0-.06,0-.14.08-.22s.16,0,.18,0S253.82,31.35,253.79,31.41Zm2.85-14.87a2.27,2.27,0,0,1-.85-.3c-.12-.07-.16-.28-.19-.44s.15-.14.25-.15A1.33,1.33,0,0,1,257,16c.06.05,0,.19,0,.29S256.75,16.56,256.64,16.54Zm2.22,1.92a1.55,1.55,0,0,1,1.18-.87.43.43,0,0,1,.26.07.35.35,0,0,1,.11.53C260,18.79,260,18.81,258.86,18.46Zm1.56-3.63c0-.11.27-.19.51-.35a2.59,2.59,0,0,1,.16.76c0,.21-.28.27-.46.1A.69.69,0,0,1,260.42,14.83Zm2.38,14.44h.05l.14.22C262.76,29.52,262.79,29.39,262.8,29.27Zm.08-5.4a1.64,1.64,0,0,1-2.5-.85.32.32,0,0,1,.05-.25c.06-.08.18-.2.24-.18.78.24,1.55.5,2.33.77,0,0,0,.17,0,.25S263,23.82,262.88,23.87Zm.53-9.91Zm1.29.12-.05,0,0,0Zm0,5.7v.75l-.35-.07s-.07-.16-.05-.22A.76.76,0,0,1,264.71,19.78Zm-.81-2.9a.33.33,0,0,1,.49.26c0,.23-.17.38-.38.3s-.23-.23-.32-.37S263.81,16.92,263.9,16.88Zm-2.46-9.94.09.18h-.19Zm-1.22-2.43,0,.17L260,4.57Zm-3.16,1.17a.69.69,0,0,1,.53-.2,1.2,1.2,0,0,1,.92.74c0,.07,0,.18,0,.27s-.17.16-.22.14a6.92,6.92,0,0,1-1.11-.49A.47.47,0,0,1,257.06,5.68ZM255,7.61c0-.08.17-.12.25-.18a1.12,1.12,0,0,1,1.31,1,.48.48,0,0,1-.08.28.32.32,0,0,1-.53.07,10.46,10.46,0,0,1-.89-.87A.36.36,0,0,1,255,7.61Zm0,2.62c.52,0,.59.54.88.8a.84.84,0,0,0,1.15.08c.36-.23.73-.66,1.12-.37,1.05.81,1.47-.22,2.16-.6.08.3.14.6.22.89.17.54.43.72.91.59.31-.08.6-.25.91-.3a.79.79,0,0,1,.58.16,2.31,2.31,0,0,1,.79,1.33,1.34,1.34,0,0,1-.3,1.06c-.07-.27-.1-.56-.18-.83A.85.85,0,0,0,262,12.5c-.2.08-.36.23-.56.32s-.57.24-.85,0a4.38,4.38,0,0,0-3-1c-.54,0-.87.43-.75,1.09,0,.2.17.38.21.58s-.63.5-.79.38a3.32,3.32,0,0,1-.72-.61,10.5,10.5,0,0,1-.61-1.09c-.16-.25-.52-.21-1.09.11A1.78,1.78,0,0,1,255,10.23Zm-3.34-3.12c.19-.06.45-.18.59-.1a4.33,4.33,0,0,1,1,.76c.8.81.7,1.52-.32,2.37-.07.06-.21,0-.32,0-.12-.14-.38-.34-.35-.41.37-.84.45-1.59-.47-2.16a.48.48,0,0,1-.15-.27C251.59,7.27,251.6,7.12,251.63,7.11Zm2.2,5.12h0a2.69,2.69,0,0,0-.87.15c-.45.24-.39.63.1,1.11H253v-.08a2.85,2.85,0,0,0-2.11-.08c-1,.28-1.33-.09-1.06-1.27A6.73,6.73,0,0,1,253.83,12.23ZM250,8c.26,0,.42.12.32.32s-.32.2-.5.25-.15-.11-.22-.17Zm-.23,10.57a2.06,2.06,0,0,1,.59-.24,8.65,8.65,0,0,0,.21,1.17c.1.35.59.53.5,1a1.43,1.43,0,0,1-1.37-.38A.89.89,0,0,1,249.8,18.53ZM249,6a.32.32,0,0,1-.14.25c-.07.06-.23.11-.26.08-.59-.55-1.17-1.12-1.75-1.69C248.19,4.44,248.85,4.86,249,6Zm-4.28,7.43s-.19,0-.22-.06c-.16-.22.12-.61.44-.61.06,0,.11.14.17.21C244.93,13.15,244.81,13.32,244.67,13.46Zm.46,2.79a1.17,1.17,0,0,1,.7-1c.24-.15.41-.15.54.07a.75.75,0,0,1,.06.29.43.43,0,0,1-.1.28,1.61,1.61,0,0,0-.27,2.25c.12.2,0,.34-.31.32-.1,0-.26-.06-.28-.12-.15-.5-.26-1-.34-1.33S245.12,16.46,245.13,16.25Zm-.57-12.4c.24-.05.6.35.56.64,0,.07-.15.13-.23.2s-.27,0-.3-.05a1.84,1.84,0,0,1-.21-.55A.31.31,0,0,1,244.56,3.85ZM242.3,24a1.47,1.47,0,0,1,.57-.18,1.7,1.7,0,0,1,.11.23c-.14.15-.24.36-.41.44a1.41,1.41,0,0,1-.57,0C242.1,24.31,242.16,24.11,242.3,24Zm-3.67-2.8a.72.72,0,0,1-.66-.76c.07-.06.14-.18.22-.19a.61.61,0,0,1,.63.74A.31.31,0,0,1,238.63,21.21Zm2.3-5.34c.13,0,.22.26.29.42s-.12.19-.21.21a1.41,1.41,0,0,1-1.49-.25A1.32,1.32,0,0,1,240.93,15.87ZM239.21,3.09s.15,0,.22,0a2.19,2.19,0,0,1,.09.5c0,.07-.11.17-.19.19C239.1,3.8,239,3.29,239.21,3.09Zm-.79,4.18a.92.92,0,0,1,.36-.42c.27-.14.63.16.62.51a.57.57,0,0,1-.59.59A.5.5,0,0,1,238.42,7.27Zm.07,2.83a.42.42,0,0,1,.4.62c-.06.13-.29.19-.54.33l-.41-.72A1.54,1.54,0,0,1,238.49,10.1Zm-2.27,2a2,2,0,0,1,.89-.12c.29,0,.34.23.14.49s-.37.47-.74.33S236,12.21,236.22,12.13Zm-.09-2.5-.14.19-.08-.21ZM232,19.41a6.14,6.14,0,0,1-.73-.6c-.06,0,0-.21,0-.3a1.43,1.43,0,0,1,.19-.24,1.08,1.08,0,0,1,1,.69c0,.1.11.22.08.3C232.43,19.51,232.23,19.57,232,19.41Zm1.37-11.54.12-.17.06.2Zm.3-3.55c.09,0,.19.07.29.11s.11.19.09.2c-.61.57-1.24,1.13-1.87,1.68a.46.46,0,0,1-.21-.14c-.05-.07-.11-.2-.08-.27A2.23,2.23,0,0,1,233.67,4.32Zm-2.09,5.29a11.17,11.17,0,0,1,1.19.43.66.66,0,0,1,.28.5c0,.17-.13.48-.25.5a7.68,7.68,0,0,0-2.37.87s-.24-.14-.23-.15A7.28,7.28,0,0,1,231.58,9.61ZM230,6.41c.06,0,.25.08.25.12,0,.24-.14.34-.38.31S229.81,6.51,230,6.41Zm-.16.48a2.16,2.16,0,0,1-.07.51c-.09.25-.25.29-.36.14a.34.34,0,0,1-.08-.25C229.41,7,229.55,6.82,229.87,6.89Zm-1.14-3.78a.91.91,0,0,1,.17-.23,4.76,4.76,0,0,1,.49.28c.06,0,.07.17.1.25a1.58,1.58,0,0,1-.54.13C228.71,3.52,228.63,3.33,228.73,3.11Zm-3.28,15.64a4.1,4.1,0,0,1-2.4.52.68.68,0,0,1-.65-.87c.91-.08,1.83-.18,2.76-.24.12,0,.28.19.39.32A.31.31,0,0,1,225.45,18.75Zm-.65-6.21a1.15,1.15,0,0,1,.22-.22c.1.17.19.34.28.51-.08.07-.18.19-.25.18C224.78,13,224.69,12.79,224.8,12.54Zm3.47,1.39.09.22-.23,0Zm-.93,13a.37.37,0,0,1-.25-.64.64.64,0,0,1,.54-.15c.13.07.15.34.22.52C227.68,26.74,227.52,26.91,227.34,26.92Zm.32-20.3-.12.23-.1-.24Zm-.81,4.85a1.79,1.79,0,0,1,.56,0c0,.07-.06.17-.11.21a.5.5,0,0,1-.3.11,5.66,5.66,0,0,1-.56-.13A1.36,1.36,0,0,1,226.85,11.47Zm-.47.26v0h-.06Zm-1-8.06c0-.09.16-.14.24-.2a5,5,0,0,1,.26.52s-.18.17-.25.15A.31.31,0,0,1,225.33,3.67Zm-1.24,4.6c0-.09.13-.15.19-.21s.29,0,.29,0a10.19,10.19,0,0,0,1.07,2.14s-.07.15-.13.18a.55.55,0,0,1-.31,0C224,10,223.78,9.44,224.09,8.27Zm-.78,2c.07.11-.05.42-.17.57s-.43.29-.52.23A13.66,13.66,0,0,1,221.1,10c-.08-.07,0-.35.06-.52s.17-.11.27-.17A2.15,2.15,0,0,1,223.31,10.31ZM221,2.09s.16,0,.24,0,.1.17.07.23c-.1.28-.24.29-.36.06A.31.31,0,0,1,221,2.09Zm-1.6,3.75a1.83,1.83,0,0,1,2.3.18,2.56,2.56,0,0,1-2.35.08S219.31,5.87,219.37,5.84Zm-.54,5.77c.07-.26.25-.33.5-.21a1.67,1.67,0,0,1,1.07,1c-.11.15-.21.41-.34.42C219.1,13,218.63,12.47,218.83,11.61Zm-1.2,2.25c0-.06.17-.16.2-.14s.12.14.18.22,0,.22-.1.24C217.66,14.25,217.55,14.12,217.63,13.86Zm-50.1,11.53a.86.86,0,0,1-.58.16.33.33,0,0,1-.3-.47c0-.09.13-.16.19-.22C167.22,24.84,167.68,25.22,167.53,25.39ZM167,21a2.84,2.84,0,0,1-.37-.47.59.59,0,0,1,.06-.8.74.74,0,0,1,.85,0,1.75,1.75,0,0,1,.39,2C167.59,21.52,167.27,21.3,167,21Zm1.23.67s-.19,0-.29.06h0c.81-.26,1.62-.54,2.38.12A1.47,1.47,0,0,1,168.2,21.71Zm-.13-6.18s.09-.19.17-.25.17,0,.27-.06A2.35,2.35,0,0,1,170,16.65c.06.14-.06.38-.15.56s-.64.4-.78.16C168.75,16.77,168.4,16.15,168.07,15.53ZM170.72,28l-.2.22c-.11-.11-.32-.24-.3-.33s.2-.27.31-.41c.07.08.18.14.21.22A.77.77,0,0,1,170.72,28Zm.13-8.06c0-.06-.09-.15-.14-.23h0c.11.14.31.36.28.38C170.84,20.33,170.77,20.26,170.85,20Zm.5.94a1.14,1.14,0,0,1-.5-.15c.52-.7.79-.8,1.38-.53a.63.63,0,0,1,.35.85A2.34,2.34,0,0,0,171.35,20.9Zm-.08-1.29a1.66,1.66,0,0,1,.38-.37c.07,0,.22-.06.25,0,.19.19.13.35-.12.46A.76.76,0,0,1,171.27,19.61Zm1.35,1.47c0-.06.08-.12.12-.12C173,21,173,21,172.62,21.08Zm.84-1.18-.16-.1.17-.05Zm.62,11.29.13-.18.08.21Zm1-3.06a.77.77,0,0,1-.55.25c-.36,0-.66-.31-.56-.58s.24-.29.37-.43C174.73,27.35,175.26,27.86,175.11,28.13Zm-.55-10.21s.15-.18.22-.17a.3.3,0,0,1,.22.46l-.21.2A3.12,3.12,0,0,1,174.56,17.92Zm1.87-1.45a.73.73,0,0,1,0-.29.51.51,0,0,1,.14-.25,1.57,1.57,0,0,1,1.78,0c.14.1.15.35.22.53a1.31,1.31,0,0,1-1.28.73A1.13,1.13,0,0,1,176.43,16.47ZM178,27.34a1.34,1.34,0,0,1-.21-.2,1,1,0,0,1-.07-.26l.34-.37c.1.14.28.28.26.4S178.12,27.2,178,27.34Zm-.7-4a.34.34,0,0,1-.42-.35.28.28,0,0,1,.14-.2,1.36,1.36,0,0,1,1.69.16C178.24,23.11,177.78,23.26,177.3,23.37Zm1.43-.39-.08-.13.15.1Zm.23,1.37s-.08-.1-.13-.16l.22-.12.23.08Zm1.26,4.11a.4.4,0,0,1-.44-.56c.07-.13.26-.2.4-.29a1.66,1.66,0,0,1,.49.28C180.83,28.08,180.54,28.43,180.22,28.46Zm.86-2.3c-.08,0-.24,0-.24-.07,0-.23.1-.27.33-.13C181.14,26,181.12,26.15,181.08,26.16Zm.71-3.57a1.38,1.38,0,0,1-.5.39.42.42,0,0,1-.31,0c-.07-.18-.21-.43-.13-.54a2.82,2.82,0,0,1,.61-.54c.2.08.36.12.37.17A.87.87,0,0,1,181.79,22.59Zm1,6.27c-.05.07-.15.11-.22.17a4,4,0,0,1-.15-.49s.15-.09.23-.14A.29.29,0,0,1,182.78,28.86Zm1.13,2.39c-.36-.07-.32-.26-.21-.47l.37.32S184,31.26,183.91,31.25Zm-.16-5.41s.12,0,.19-.06.1.14.1.21-.09.19-.13.19C183.67,26.17,183.61,26,183.75,25.84Zm2.44-8.36a4.41,4.41,0,0,1-.55.16.39.39,0,0,1,.28-.58c.12,0,.3.12.46.18C186.32,17.32,186.27,17.44,186.19,17.48Zm-.71-7.33a1.38,1.38,0,0,1-1-.73.49.49,0,0,1,.3-.71c.19,0,.44,0,.56.14a3.15,3.15,0,0,1,.55.75.34.34,0,0,1-.16.52A.48.48,0,0,1,185.48,10.15Zm1.2,11.29a.71.71,0,0,1-.22-.53c0-.24.23-.33.48-.28.1,0,.25,0,.3.08a1,1,0,0,1,.22.52C187.43,21.5,186.93,21.64,186.68,21.44Zm5.47.65a.47.47,0,0,1-.57-.51c0-.14.22-.37.33-.37a3.42,3.42,0,0,1,.91.24C192.52,21.74,192.37,22,192.15,22.09Zm2.4-2.72a1.88,1.88,0,0,1-.88.07c-.15,0-.3-.25-.37-.42s.14-.58.47-.68a.73.73,0,0,1,1,.51C194.68,19,194.66,19.33,194.55,19.37Zm1-11.52.1-.15.06.18Zm.76,5c-.25,0-.31-.1-.14-.35.07,0,.21.05.21.09S196.35,12.79,196.31,12.8Zm2,11.51c-.37,0-.65-.25-.52-.55.06-.14.32-.35.37-.32a4.55,4.55,0,0,1,.69.53C198.59,24.12,198.45,24.29,198.29,24.31Zm3.77-15.76a1.88,1.88,0,0,1-1.16-1,8.09,8.09,0,0,1,.86.07c.46.06.52.2.36.8Zm13.7,5.08c-.06-.07-.17-.15-.16-.22s.14-.12.22-.18.16.16.16.22S215.84,13.57,215.76,13.63Zm1.17-2.23c-.1.3-.47.51-.71.36a.74.74,0,0,1-.31-.46c-.07-.33.21-.56.57-.52A.48.48,0,0,1,216.93,11.4Zm-1.09-8.31a2.16,2.16,0,0,1,.58,0c.06.07.16.14.18.23a.23.23,0,0,1-.08.22,1.13,1.13,0,0,1-.53.16,1.57,1.57,0,0,1-.52-.22C215.59,3.31,215.69,3.15,215.84,3.09Zm-.46,3.37a3.72,3.72,0,0,1,.48-.27c.51.08.72.26.82.71a.5.5,0,0,1-.06.26.31.31,0,0,1-.49.13,5,5,0,0,1-.66-.56C215.41,6.66,215.35,6.48,215.38,6.46Zm0,10.82c-.06,0-.13.15-.19.15s-.11-.11-.17-.17l.19-.15Zm-1.07-7.89a.86.86,0,0,1,.5-.29c.09,0,.2.26.31.4-.05.09-.08.22-.15.26a1,1,0,0,1-.54.15A.31.31,0,0,1,214.34,9.39Zm-1.75-1.75.21-1.22,0-.16v.23c.7-.12.88.46,1.17.85a.57.57,0,0,1-.12.83,1.57,1.57,0,0,1-.89.18C212.69,8.34,212.54,8,212.59,7.64Zm-.46,14.06a.83.83,0,0,1-.76.8c-.28.05-.64-.32-.49-.56a2.36,2.36,0,0,1,.6-.62C211.73,21.14,212.13,21.4,212.13,21.7Zm-.79-12.23c0,.07.15.14.15.2s-.15.17-.18.15C211.07,9.7,211.09,9.57,211.34,9.47Zm-.08,3c.05.08.14.17.14.25s-.11.13-.17.2-.14-.15-.13-.22S211.2,12.53,211.26,12.45Zm-.33-8a1.2,1.2,0,0,1,.17.21l-.5.17c0-.07-.14-.17-.12-.23C210.55,4.38,210.72,4.33,210.93,4.45Zm-.43,2.87c.11.13.29.24.31.38.05.3-.22.45-.6.35a.46.46,0,0,1-.24-.16C209.84,7.68,210.21,7.31,210.5,7.32Zm-2.44-2.56c.19,0,.31,0,.39,0a.63.63,0,0,1,.31.77c-.08.29-.55.61-.7.47a.81.81,0,0,1-.26-.52A3.18,3.18,0,0,1,208.06,4.76Zm-1.2,12s.2,0,.28.05a1.06,1.06,0,0,1,.66.92.55.55,0,0,1-.09.23.3.3,0,0,1-.24.07c-.38-.13-.76-.31-.82-.75C206.63,17.1,206.77,16.9,206.86,16.74ZM206,11.45l.19.11-.21.07Zm-.67-7.56a.33.33,0,0,1,.23.16,5.23,5.23,0,0,1,.12.57l-.31.37a1,1,0,0,1-.2-.21,2.51,2.51,0,0,1-.18-.57C204.93,4,205.07,3.85,205.32,3.89Zm-1,8.54c-.1.14-.19.36-.32.38s-.61-.42-.53-.64a.4.4,0,0,1,.26-.16C204.16,11.93,204.37,12.08,204.35,12.43Zm-.76-3.79-1.43-.07a4.07,4.07,0,0,1,.93-.47C203.44,8,203.58,8.29,203.59,8.64Zm-2.85-4.83a.61.61,0,0,1,.84-.13,8.92,8.92,0,0,1,1,.84c-.77.26-1.44.49-2.13.7-.06,0-.17-.06-.23-.12s-.11-.2-.08-.25A7.38,7.38,0,0,1,200.74,3.81Zm-.64,4.31c.45,0,.73-.16.78-.62h0c-.27.94.31,1.87.11,2.82a1,1,0,0,1-.34.45c-.06.06-.29.06-.29,0-.32-.9-1.18-1.59-1.1-2.63C199.55,8.16,199.82,8.12,200.1,8.12Zm-.9,7.78a1.49,1.49,0,0,1-1.33,1.56.6.6,0,0,1-.28-.08c-.24-.11-.26-.28-.18-.53a1.79,1.79,0,0,1,1-1.13C198.61,15.63,199,15.84,199.2,15.9Zm-1.73-9.48c.18,0,.43.07.52.2a3.8,3.8,0,0,1,.39.75,3,3,0,0,1-.81-.17c-.13,0-.18-.33-.22-.51A.43.43,0,0,1,197.47,6.42Zm-.24,4.2a8.67,8.67,0,0,1,.06-.89c0-.25.23-.33.48-.28s.6.34.48.62a.86.86,0,0,1-.95.62c.07.26-.13.54-.29.42C196.52,10.78,196.85,10.66,197.23,10.62ZM194,3.8c0-.09.13-.15.21-.22a2.5,2.5,0,0,1,2.13,1.07.28.28,0,0,1,0,.29c-.13.13-.39.34-.46.3-.62-.36-1.22-.76-1.82-1.16A.33.33,0,0,1,194,3.8Zm-.57,8.92a.41.41,0,0,1,.29,0,.39.39,0,0,1,.16.25.88.88,0,0,1,0,.28l-.15.26a2.09,2.09,0,0,1-.45-.33C193.14,13,193.2,12.81,193.45,12.72Zm-.65-7.83c0-.08.14-.12.22-.19s.18.14.18.22a4.29,4.29,0,0,1,0,.8c0,.07-.15.19-.22.18C192.76,5.89,192.63,5.29,192.8,4.89Zm-.61,3.53a4,4,0,0,1,.59.74,3.35,3.35,0,0,1-.89.12c-.12,0-.26-.27-.27-.42C191.59,8.53,192,8.25,192.19,8.42Zm-.49,7.69a1.39,1.39,0,0,1-.21.21.58.58,0,0,1-.8-.1.64.64,0,0,1-.13-.53.59.59,0,0,1,.4-.37C191.27,15.28,191.72,15.8,191.7,16.11ZM191.17,11a.4.4,0,0,1,0,.3.35.35,0,0,1-.53.2,2.42,2.42,0,0,1-.78-.52c-.37-.49-.66-1.05-1.36-2.2C190,9.57,190.74,10.14,191.17,11Zm-1.56-7.25c0-.07.16-.1.25-.15l.21.49c-.09,0-.2.13-.27.11A.27.27,0,0,1,189.61,3.77Zm-.28,2.9a.81.81,0,0,1,.8-.36.55.55,0,0,1,.57.59.58.58,0,0,1-.62.56C189.61,7.42,189.17,7,189.33,6.67Zm-.79-.84h0a2.24,2.24,0,0,0-.39.14A.57.57,0,0,1,188.54,5.83Zm-.48,8.92A1.23,1.23,0,0,1,188,15c-.14.24-.5.23-.82,0s-.27-.34-.12-.54S187.88,14.34,188.06,14.75Zm-.29-8.08s0,0,0,0h0ZM185,5.35a.94.94,0,0,1,.84-.08,5.79,5.79,0,0,1,1.95,1.44,4.61,4.61,0,0,0-.79.44c-.3.26-.65.26-.76,0a1.28,1.28,0,0,0-1.46-.86,2.21,2.21,0,0,1-.51,0A3.82,3.82,0,0,1,185,5.35Zm.6,12.35c-.36.49-.71,1-1.11,1.44-.09.11-.39.06-.59.05,0,0-.08-.18-.09-.28a1.32,1.32,0,0,1,.42-1.13A1.21,1.21,0,0,1,185.56,17.7ZM183.28,2.93a.57.57,0,0,1,.49-.12c.12.08.14.31.21.48-.16.08-.32.23-.47.23A.34.34,0,0,1,183.28,2.93Zm0,3.34a3.53,3.53,0,0,1,.86,0c.07.69-.1,1-.64,1-.28,0-.69-.36-.6-.59S183.1,6.29,183.25,6.27Zm0,7.61c.43,0,.92.32.89.67a.57.57,0,0,1-.33.42,3.65,3.65,0,0,1-.88.08,2,2,0,0,1-.16-.51C182.79,14.12,183,13.89,183.29,13.88ZM183,15.11c.11.28.24.54.32.82s-.1.71-.42.64c-.73-.15-1.47-.29-2.2-.49a.7.7,0,0,1-.39-.46c0-.15.12-.5.19-.5C181.28,15.09,182.12,15.11,183,15.11ZM181.68,4.6v.17l-.24-.09Zm0,4.74c.09,0,.25,0,.27.07a1,1,0,0,1,.08.53c-.09.29-.32.54-.39.83a.68.68,0,0,0,.24.49c.2.2.63.33.65.52a1.18,1.18,0,0,1-.38.8,4.11,4.11,0,0,1-.88.54c-.31-.6-.58-1.13-.88-1.66C179.83,10.49,180,9.59,181.67,9.34Zm-2.95-3.28a.63.63,0,0,1,.85-.14,4.18,4.18,0,0,1,.65.78c-.59,0-1,.06-1.42.06-.09,0-.26-.11-.26-.16A1.12,1.12,0,0,1,178.72,6.06Zm.7,3.72h0c-.09-.18-.2-.34-.27-.52s-.06-.26,0-.29c.28-.18.37-.09.31.24A2.7,2.7,0,0,0,179.42,9.78Zm0,0a.78.78,0,0,0-.8.28c-.31.39-.6.8-.89,1.2a3.41,3.41,0,0,1-.9,0c-.25,0-.39-.65-.24-.8A2.29,2.29,0,0,1,179.37,9.77Zm-2.9-2.21a.92.92,0,0,1,.24-.19l.19.53c-.09.06-.2.17-.26.15A.29.29,0,0,1,176.47,7.56Zm.29,5.46c.88-.28.81-1,.93-1.67.55.29,1.1.57,1.64.87.09,0,.14.16.19.25a.83.83,0,0,1,.08.88.86.86,0,0,1-.46.37c-.54.07-1.08.06-1.62.1a1.39,1.39,0,0,0-1.1.56,2.34,2.34,0,0,1-.44.45,1.87,1.87,0,0,1-2.13.13c-.71-.39-1.37-.85-2-1.28,1-.72,1.69-1.85,3-2.16C175.76,11.65,176.05,12.59,176.76,13Zm-1.3-7.17.07.23-.21,0ZM173.8,4.44l.34.32a3.63,3.63,0,0,1-.54.15c-.06,0-.15-.12-.22-.19Zm.65,4.85a3.91,3.91,0,0,0,.92-.24.37.37,0,0,1,.5.27.79.79,0,0,1-.07.59c-.18.24-.44.58-.69.6-1.14.07-2.17.55-3.29.67.23-.31.46-.62.7-.92A2.36,2.36,0,0,1,174.45,9.29Zm-3.54-5.21a2.62,2.62,0,0,1,.59-.25,1.18,1.18,0,0,1,.25,1.43c-.1.26-.62.54-.78.4a1.25,1.25,0,0,1-.37-.49C170.39,4.63,170.45,4.42,170.91,4.08Zm-.11,4.78c.08-.09.4-.07.54,0a.52.52,0,0,1,.19.47,2.2,2.2,0,0,1-1.16,1.34c-.12.06-.37-.09-.55-.17s-.08-.15-.12-.24C169.84,9.65,170.39,9.31,170.8,8.86ZM169.66,13a2.4,2.4,0,0,0,.22-.61,1.08,1.08,0,0,1,1.23-1.13l.6,0c0,.17.11.36,0,.49a12.21,12.21,0,0,1-.73,1.32.44.44,0,0,0,.2.71c.12.06.31,0,.48-.06.21.62.42,1.25.62,1.88,0,0-.14.13-.25.23-1.16-.73-2.15-1.75-3.59-2-.13,0-.2-.31-.3-.47a2.34,2.34,0,0,1,.55-.22A7.46,7.46,0,0,1,169.66,13ZM168.28,2.39l0,.23-.17,0Zm-1,5.11.31-.12c.29-.12.63-.29.83,0s0,.57-.27.77c-.08.07-.18.11-.26.18a.88.88,0,0,0-.27,1.33c.17.24.36.54.16.85a1.44,1.44,0,0,1-.44.41c-.23.14-.43.07-.5-.14A2.69,2.69,0,0,0,166,9.23c-.15-.1-.19-.35-.27-.54a1,1,0,0,1,.7-1.18A7.08,7.08,0,0,1,167.32,7.5ZM165,5.05a3.69,3.69,0,0,1,.92.18,4.44,4.44,0,0,1-.52.8c-.19.18-.64,0-.74-.27S164.75,5.07,165,5.05Zm-.44,8.57a.73.73,0,0,1,.86-.22c.15.06.22.29.33.45-.13.14-.23.35-.38.39a.64.64,0,0,1-.8-.32A.35.35,0,0,1,164.59,13.62ZM163.25,20a.29.29,0,0,1,.24,0,.34.34,0,0,1,.13.25,1.12,1.12,0,0,1-.9,1c-.09-.15-.25-.31-.24-.45C162.52,20.33,162.86,20.1,163.25,20ZM161.62,2.72c.06,0,.25.11.24.15a.32.32,0,0,1-.43.27C161.33,2.94,161.38,2.79,161.62,2.72Zm-5.54,7.67a1.15,1.15,0,0,1-1.15-.83.52.52,0,0,1,.23-.49,1,1,0,0,1,1.28.93C156.32,10.13,156.2,10.38,156.08,10.39Zm.47,3.23c-.07-.06-.22-.14-.21-.18a4.15,4.15,0,0,1,.23-.48c.07.08.2.16.19.21A4.54,4.54,0,0,1,156.55,13.62Zm.69,8.5c0,.05-.26.06-.27,0-.07-.17-.19-.38-.13-.51s.29-.2.45-.27.12.14.18.21A3.14,3.14,0,0,1,157.24,22.12Zm.47-3.48a.41.41,0,0,1-.37-.61c.06-.13.37-.3.43-.26a4,4,0,0,1,.57.59A2,2,0,0,1,157.71,18.64Zm.85-7.83c-.12.13-.3,0-.38-.23s0-.39.29-.43c.08,0,.18.1.27.16C158.68,10.48,158.68,10.69,158.56,10.81Zm1.9,16.49a1.34,1.34,0,0,1-.56.24.41.41,0,0,1-.3-.08c-.13-.13-.33-.3-.32-.45s.27-.23.42-.35a1.65,1.65,0,0,1,.31,0C160.37,26.79,160.64,27.15,160.46,27.3Zm.67-13.94s-.18.06-.2,0a7.08,7.08,0,0,1-.67-1c0-.08.15-.3.27-.43s.2,0,.28.08a1.07,1.07,0,0,1,.45,1A1.19,1.19,0,0,1,161.13,13.36Zm-1.47-9.7a.48.48,0,0,1,.27-.15l1.33-.26c-.42.36-.84.73-1.29,1.06-.08.06-.34-.11-.52-.17A4.1,4.1,0,0,1,159.66,3.66Zm-1.3,1.41s.14.09.21.14,0,.22,0,.22a1.93,1.93,0,0,1-.53.07c-.07,0-.14-.14-.2-.21A3.6,3.6,0,0,1,158.36,5.07Zm-3.49-.53a6.33,6.33,0,0,1,.76-.06c.16.12.5.26.59.49a3.92,3.92,0,0,0,.8,1.64c.78.77,1.5,1.15,2.47.31,0,0,.4.16.41.26a1.36,1.36,0,0,1-1.66,1.37c-.82-.27-1.3-1.08-2.21-1.21-.22,0-.46-.42-.53-.68a2.53,2.53,0,0,0-.93-1.21A.52.52,0,0,1,154.87,4.54Zm-6.4,19.57c-.22.21-.53,0-.59-.43a2.91,2.91,0,0,1,0-.31c0-.2,0-.41-.08-.85,0-.07,0-.37.07-.67,0-.07.11-.19.17-.19a.47.47,0,0,1,.3.1A1.73,1.73,0,0,1,149,23.4,1.48,1.48,0,0,1,148.47,24.11Zm1.25,1.65a.42.42,0,0,1-.31,0c-.08,0-.19-.21-.17-.23a4.09,4.09,0,0,1,.38-.33l.34.34A1.06,1.06,0,0,1,149.72,25.76Zm-.21-7.55a9.13,9.13,0,0,1,1-.8c.17-.11.36,0,.37.31,0,.67-.21.94-.9,1a4.16,4.16,0,0,1-.52-.25A.45.45,0,0,1,149.51,18.21Zm1.27,3.69c-.24,0-.43-.06-.45-.29a1.77,1.77,0,0,1,.13-.54,2.44,2.44,0,0,1,.45.32C151.06,21.58,151,21.77,150.78,21.9Zm1.07-2,0-.15.14.11Zm1.27-13.22c0-.07.12-.11.18-.17.11.15.31.29.31.44a.93.93,0,0,1-.87,1l.08.19-.14-.1C152.82,7.63,153,7.17,153.12,6.71Zm-.47,6.11,0,.17-.16-.11Zm-.78-2.93c.15.14.28.2.3.29.14.58-.31.93-.58,1.36-.5.8-1,1.61-.52,2.6,0,0-.07.18-.14.23a.42.42,0,0,1-.25,0,15.7,15.7,0,0,1-.39-2.36.43.43,0,0,1,.08-.29C150.86,11.1,151.37,10.5,151.87,9.89Zm-2-2.59a11.57,11.57,0,0,1,1.43-.65s.14.14.22.22,0,.44-.07.51c-.35.23-.74.38-1.11.58s-.46.11-.53-.14S149.78,7.35,149.88,7.3ZM148,8.89a.44.44,0,0,1,.3,0,2,2,0,0,0,1.77.09c.19-.09.37.07.38.33,0,.07-.12.15-.2.23a1.46,1.46,0,0,1-1.13.45c-.46-.1-1-.1-1.28-.64a.39.39,0,0,1,0-.26A.38.38,0,0,1,148,8.89Zm-1.14-3.41c0-.08.13-.16.21-.19a.44.44,0,0,1,.51.53c0,.11-.24.32-.32.3A.53.53,0,0,1,146.86,5.48Zm-.12,5.92a1.23,1.23,0,0,1,.41-.44.64.64,0,0,1,.84.23,2.18,2.18,0,0,1,.22.57.47.47,0,0,1-.51.6,2.68,2.68,0,0,1-.58-.22C146.85,12,146.59,11.75,146.74,11.4Zm.15,2.5a9.32,9.32,0,0,1,1.07.59c.08,0,.17.22.14.25a.86.86,0,0,1-.4.31,2.18,2.18,0,0,1-.63,0,1.74,1.74,0,0,1-.57-.19.65.65,0,0,1-.26-.48C146.25,14.11,146.66,13.81,146.89,13.9ZM135.16,26.54a.7.7,0,0,1-.35.37c-.24.11-.66-.24-.62-.5a1,1,0,0,1,.17-.53,3.85,3.85,0,0,1,.68-.5l.14.54A2.1,2.1,0,0,1,135.16,26.54Zm1.88.39c-.09-.15-.26-.3-.25-.44,0-.34.29-.47.65-.35a.39.39,0,0,1,.21.19C137.72,26.54,137.3,26.94,137,26.93Zm2.05-15a.62.62,0,0,1-.77-.31c-.06-.26.29-.77.5-.69a2.33,2.33,0,0,1,.66.52C139.32,11.69,139.24,11.89,139.09,12Zm4.79,12.2c-.06-.31.13-.56.57-.64a3,3,0,0,1,.48.51c.15.26-.08.52-.43.58A.53.53,0,0,1,143.88,24.16Zm.35-12.06c-.18-.21-.18-.38,0-.5a.84.84,0,0,1,.27-.08c.17.11.39.18.47.33s0,.36,0,.54a3.09,3.09,0,0,1-.52-.07C144.35,12.29,144.3,12.17,144.23,12.1Zm.83,13.54a.29.29,0,0,1-.46-.16c0-.07,0-.19.09-.26.25-.32.54-.41.67-.22a.65.65,0,0,1,.06.24A2.77,2.77,0,0,1,145.06,25.64Zm.59-18.1c-.17,0-.42,0-.48-.14a.49.49,0,0,1,.15-.64c.15.11.34.2.42.35S145.68,7.39,145.65,7.54Zm-.34-4.25c.13.11.34.21.35.33a.61.61,0,0,1-.23.46c-.21.15-.65-.26-.54-.5S145.17,3.38,145.31,3.29Zm-1.83,2.47a2,2,0,0,1,.89.18,6.06,6.06,0,0,1,.91.78,3.12,3.12,0,0,1-2-.07c-.11,0-.18-.32-.19-.5A.34.34,0,0,1,143.48,5.76Zm-1.33,3.51a1.6,1.6,0,0,1,1.32,1.17s-.18.1-.27.16c-.79-.07-1.26-.47-1.24-1.1C142,9.42,142.09,9.27,142.15,9.27Zm-1.24,3.09c.05-.07.15-.09.23-.13s.24,0,.31.06c.94.82,1.56,1.93,2.66,2.62.13.08.08.56,0,.83s-.63.41-.78.23a3.42,3.42,0,0,1-.39-.48,3.31,3.31,0,0,0-1.4-1.59c-.38-.21-.52-.84-.75-1.29C140.77,12.55,140.85,12.43,140.91,12.36Zm-.26,18c.06-.24.24-.35.45-.22s.19.3.32.52l-.62.5a3.63,3.63,0,0,1-.19-.52A.68.68,0,0,1,140.65,30.4ZM137.37,3.3c.13.09.18.3.32.56l-.7.34a1.35,1.35,0,0,1-.24-.5C136.75,3.39,137.13,3.14,137.37,3.3Zm-.61,3.88c.11-.16.25-.42.39-.42a2.81,2.81,0,0,1,2.28.78c.34.37.93.55.93,1.15a.92.92,0,0,1-.2.23.39.39,0,0,1-.28,0c-1-.5-2.07-1-3.09-1.51A.26.26,0,0,1,136.76,7.18ZM136,10.52c.13.13.34.25.36.4s-.29.48-.67.4a.39.39,0,0,1-.25-.2C135.35,10.86,135.69,10.5,136,10.52Zm-1.1-4.93s.13,0,.21-.07.1.18.09.25c-.07.27-.21.3-.35.08C134.84,5.79,134.88,5.66,134.93,5.59ZM135,17.46c.25.17.57.39.61.63a8.55,8.55,0,0,1,0,1.52c.44-.31.94-.51,1.4,0a17.33,17.33,0,0,1,1.39,1.69c.09.12,0,.42-.09.57s-.41.08-.5,0c-.67-.67-1.31-1.36-2-2.05a2.4,2.4,0,0,0-.26-.18c0-.18,0-.43-.11-.52a9,9,0,0,0-1-.65h0a5.58,5.58,0,0,1-.09-.59C134.41,17.58,134.82,17.3,135,17.46ZM133.65,7.9a.51.51,0,0,1,.25,0,1.26,1.26,0,0,1,.79.86c0,.14-.14.31-.25.44s-.23,0-.27-.05a9.49,9.49,0,0,1-.63-1C133.51,8.11,133.61,8,133.65,7.9Zm-.83,9.82c.7-.08,1.14.45,1.68.73a1.47,1.47,0,0,0-1.21.07.68.68,0,0,1-.57-.09c-.12-.09-.13-.34-.13-.51S132.73,17.73,132.82,17.72ZM131,9c-.05-.25-.09-.49-.16-.73-.14-.45.06-.64.48-.66C131.24,8.06,131.13,8.52,131,9Zm0,.06h0V9Zm1.07-5.71c.26.05.29.18.07.29a.3.3,0,0,1-.26,0s0-.12-.05-.18S132.05,3.32,132.12,3.34Zm-1.37,2.47a.93.93,0,0,1,.57,0,4.59,4.59,0,0,1,.8.46c.43.28.47.63,0,1a2.52,2.52,0,0,1-.79.32l-.75-1.21C130.5,6.09,130.53,5.89,130.75,5.81Zm-.12,4.6a.54.54,0,0,1,.59.59.33.33,0,0,1-.23.2.52.52,0,0,1-.59-.59A.33.33,0,0,1,130.63,10.41Zm-1.06,3.16s.19,0,.19,0c0,.17-.15.22-.33.17A.52.52,0,0,1,129.57,13.57Zm-.27.34,0,.33-.25-.09Zm-1.6,10.91c-.17-.07-.4-.1-.49-.22a3.09,3.09,0,0,1-.31-.8c0-.05.13-.14.19-.2.38,0,.68.2.78.71C127.9,24.46,127.76,24.65,127.7,24.82Zm-.09-14.31c.11-.22.54-.12.77.17s.41.78.18,1.11a.6.6,0,0,1-.21.21c-.19.07-.4.12-.63.19a2.82,2.82,0,0,1-.33-.84A1.73,1.73,0,0,1,127.61,10.51Zm-1.7-1.64a4.12,4.12,0,0,1,.58.21c-.13.11-.26.3-.37.29s-.27-.18-.41-.28C125.78,9,125.86,8.86,125.91,8.87Zm0,10.74a1.18,1.18,0,0,1,1.45.79,1.45,1.45,0,0,1,0,.3,1.51,1.51,0,0,1-.51.25,1.34,1.34,0,0,1-1.17-.86C125.55,19.85,125.61,19.64,125.88,19.61Zm-.55-5.48-.12.2-.09-.22Zm-1.42-7c-.11-.05,0,.07-.07.08l-.14-.15Zm-1,4.3a2.64,2.64,0,0,1,.47.33c0,.05,0,.2,0,.29-.11.28-.29.32-.51.11s-.26-.3-.39-.45Zm-2.22,1.32c-.12-.11-.27-.21-.38-.33a.33.33,0,0,1,0-.27,3.33,3.33,0,0,1,.28-.48A4.24,4.24,0,0,1,121,12a.76.76,0,0,1,.06.27ZM121,8.29a3.44,3.44,0,0,1,.66.34l-1.1.53h0a1.89,1.89,0,0,1-.11-.44A.44.44,0,0,1,121,8.29Zm-.82.58a1,1,0,0,1,.35.3,4.89,4.89,0,0,1-.53.09c-.06,0-.13-.09-.19-.13C119.91,9,120.07,8.84,120.16,8.87ZM103.59,18a.62.62,0,0,1-.8.16c-.09,0-.23-.14-.22-.19a.94.94,0,0,1,.21-.52c.37-.29.79-.52,1.79-1.15C104,17.29,103.82,17.65,103.59,18ZM105,31.2l.11-.33.13.28Zm.16-.44.25-.1C105.45,30.81,105.37,30.84,105.2,30.76Zm4.72-18.36h-2.14c0-.68,1-1.27,0-1.87a2.44,2.44,0,0,1,.32-.45c0-.05.19,0,.29,0l.83.18c.11.62.76.89,1,1.41C110.36,11.91,110.17,12.4,109.92,12.4Zm-.81-3.6a.64.64,0,0,1,.35-.43.86.86,0,0,1,.59,0,1,1,0,0,1,.43.39c.55.9.39,1.19-.66,1.28l-.51.09A12.56,12.56,0,0,1,109.11,8.8Zm1.8,15.07a2.43,2.43,0,0,1-.44-.26,4.1,4.1,0,0,1,.5-.14s.09.15.13.21S110.94,23.89,110.91,23.87Zm1.82-2,0-.15.14.1Zm5.73-.06c-.41.29-1.4-.13-1.43-.6,0-.09.28-.19.43-.28a1,1,0,0,1,1.07.38A.52.52,0,0,1,118.46,21.79Zm-.23-17.15c.17,0,.36.11.54.18,0,.1,0,.22,0,.29s-.32.14-.52-.05S118,4.67,118.23,4.64Zm-.37,6.5c0-.06.13-.09.21-.13l.19.5c-.06.07-.11.18-.19.2S117.71,11.43,117.86,11.14Zm0,2.29c.07,0,.1.14.15.21s0,.22-.07.28a1.28,1.28,0,0,1-1.37.43.57.57,0,0,1-.33-.41.65.65,0,0,1,.22-.52A1.14,1.14,0,0,1,117.82,13.43ZM115.53,8a7,7,0,0,1,1-.28c-.36.34,0,.74.09,1.14,0,.11-.14.39-.26.41-.5.09-1.18-.38-1.16-.8A.63.63,0,0,1,115.53,8Zm-.77,3.47.35.28a3.59,3.59,0,0,1-.36.32s-.18-.1-.21-.18A.27.27,0,0,1,114.76,11.51Zm-1.49-7.08a1.07,1.07,0,0,1,1.08,1,1,1,0,0,1-.72.88c-.16,0-.47-.07-.51-.18A3.18,3.18,0,0,1,112.84,5C112.84,4.76,113.15,4.57,113.27,4.43Zm-.67,3.93c.26-.06.41.05.38.3,0,.1-.1.18-.15.27l-.42-.38C112.47,8.49,112.53,8.38,112.6,8.36Zm.1,10.52c.16,0,.32.21.48.32l-.51.31-.46-.33C112.37,19.07,112.54,18.88,112.7,18.88Zm-3.28-13c.51,0,1,0,1.54,0,.09,0,.18.3.22.47a.29.29,0,0,1-.14.24c-.51.12-1,.23-1.54.31a1.27,1.27,0,0,1-1.1-.44c-.4-.39-.06-.73,0-1.1A1,1,0,0,0,109.42,5.84Zm-2.53-.61,1.51.07h0c-.49.12-1,.25-1.47.36-.08,0-.24,0-.26-.06C106.55,5.33,106.63,5.22,106.89,5.23Zm0,2.47a1.83,1.83,0,0,1,.55.13c-.1.15-.16.34-.3.44a.3.3,0,0,1-.48-.14C106.53,7.91,106.62,7.72,106.86,7.7Zm-2.59,0c.08,0,.15.13.22.2s-.16.19-.23.19-.14-.13-.21-.21S104.2,7.74,104.27,7.75Zm-.6-4.41.06.16h-.15Zm.93,7.18a1,1,0,0,1,1.1.35.94.94,0,0,1,0,1.15.54.54,0,0,1-.81.14,2.29,2.29,0,0,1-.23-.21l-.58-.48c-.51.27-1.06.58-1.63.85a.93.93,0,0,1-.61.09.78.78,0,0,1-.44-.36.31.31,0,0,1,.18-.49l1.79-.64ZM102.88,5c.16.07.44.12.45.21a2.71,2.71,0,0,1-.07.8c0,.07-.16.11-.24.17a2.94,2.94,0,0,1-.42-.72C102.57,5.38,102.78,5.2,102.88,5Zm-1.25,2.67c.14.06.21.3.31.46,0,.63-.49.83-.94,1.07a.45.45,0,0,1-.3,0c-.25-.09-.32-.25-.22-.44a8.31,8.31,0,0,1,.59-1A.61.61,0,0,1,101.63,7.71Zm-1.22-2.25c.07.07.19.15.18.22a1.76,1.76,0,0,1-.13.5.42.42,0,0,1-.22,0,1.67,1.67,0,0,1,0-.5C100.21,5.59,100.34,5.53,100.41,5.46Zm-.53-2-.13.19-.07-.22Zm-5.2,17.78a.8.8,0,0,1-1.06-.41,1.26,1.26,0,0,1-.05-.28A1.14,1.14,0,0,1,94.91,20a.39.39,0,0,1,.23.21A.89.89,0,0,1,94.68,21.23Zm-.11-4.65c.05.06.15.12.14.18s-.14.17-.17.15C94.31,16.79,94.33,16.67,94.57,16.58Zm.35-2.44c-.15,0-.27-.26-.41-.39.12-.12.24-.32.37-.33.52,0,1,0,1.55,0A1.47,1.47,0,0,1,94.92,14.14Zm3.89-.55c.08,0,.21,0,.32.06a5.15,5.15,0,0,1-.23.54.38.38,0,0,1-.26.16c-.79,0-1,.54-1.16,1.18,0,.05-.23.12-.28.08a4.2,4.2,0,0,1-.7-1.94.61.61,0,0,1,0-.19C97.22,14.26,98,13.93,98.81,13.59ZM97.29,10a.56.56,0,0,1,.52.19,1.32,1.32,0,0,1-.69,1.23c-.08-.05-.22-.07-.24-.14A.91.91,0,0,1,97.29,10Zm.48-3.53c.09,0,.17.11.26.16a1,1,0,0,1,0,.3A1.74,1.74,0,0,1,96.61,8c-.1,0-.36-.2-.38-.33C96.08,6.69,96.78,6.15,97.77,6.43ZM96.56,3.5c.14.1.15.36.22.55-.06.36-.34.59-.65.46a.62.62,0,0,1-.39-.37C95.65,3.8,96.29,3.31,96.56,3.5Zm-3.9,0-.11.16-.06-.18ZM92.4,9.33c.35-.86,1-1.11,1.72-.7a7.94,7.94,0,0,1,1,.75h0L95,9.6c-.06-.07-.07-.12,0-.16-.69.18-1.41.37-2.13.54-.08,0-.27,0-.29-.09A.94.94,0,0,1,92.4,9.33ZM91.29,12a.34.34,0,0,1,.23-.19c.71-.13,1.42-.24,2.06-.34.15.14.25.19.25.24a.38.38,0,0,1-.09.29,3.39,3.39,0,0,1-2.32.73c-.08,0-.23-.12-.23-.18A1.45,1.45,0,0,1,91.29,12Zm-.49,8s.18.28.28.44c0,.36-.28.59-.58.54s-.64-.44-.46-.62A1.79,1.79,0,0,1,90.8,20ZM89.7,9a.69.69,0,0,1,.54.15,1.69,1.69,0,0,1,.29.51c0,.08,0,.22-.09.23s-.39.13-.52.06-.24-.3-.35-.46S89.47,9.1,89.7,9ZM88.53,4.8c.26-.13.44,0,.42.2a4.93,4.93,0,0,1-.11.67A4.06,4.06,0,0,1,88.46,5,.27.27,0,0,1,88.53,4.8Zm-.41,12.75a.76.76,0,0,1,.84.19.61.61,0,0,1,.13.51c-.06.15-.29.24-.51.41a3.52,3.52,0,0,1-.68-.43A.41.41,0,0,1,88.12,17.55ZM53.37,21.46a.52.52,0,0,1-.31-.05c-.05,0-.07-.22,0-.24s.34-.23.46-.19a4,4,0,0,1,.77.39Zm3.05,1.14c-.06.24-.61.27-.83.06A5.18,5.18,0,0,1,55,22c-.18-.25-.29-.56-.67-.59a3.55,3.55,0,0,0,0-.57.26.26,0,0,1,.42-.23A17.8,17.8,0,0,1,56.38,22C56.49,22.14,56.46,22.42,56.42,22.6ZM56.65,17c-.1,0-.25.08-.28.05-.57-.71-1.51-1.21-1.42-2.3,0-.09.08-.25.13-.25s.45,0,.55.06a1.9,1.9,0,0,1,.5.77,4,4,0,0,0,.6,1.44S56.68,16.88,56.65,17Zm2.6-.19.11-.17.06.19ZM59.87,22a.88.88,0,0,1,.17-.53,1.21,1.21,0,0,1,.53-.3s.13.13.2.2a1.76,1.76,0,0,1-.13.57C60.45,22.24,59.88,22.27,59.87,22ZM61,28.53s-.2,0-.25-.09,0-.23,0-.26a1.91,1.91,0,0,1,.53-.22s.1.14.15.21A3.73,3.73,0,0,1,61,28.53Zm1.08-4.48a.53.53,0,0,1-.5-.06,3.34,3.34,0,0,1-.43-.73c0-.06,0-.22.07-.24s.43-.18.55-.11a2.8,2.8,0,0,1,.57.57C62.25,23.72,62.22,24,62.09,24.05Zm1.74.78a1.71,1.71,0,0,1,.49.31.33.33,0,0,1-.18.52.31.31,0,0,1-.47-.28A2.42,2.42,0,0,1,63.83,24.83ZM63.73,22s.11-.11.17-.17a3.16,3.16,0,0,1,.39.43s0,.18-.1.22-.27.07-.28,0A1.61,1.61,0,0,1,63.73,22Zm.35,6.14c-.27,0-.36-.22-.23-.46,0-.07.16-.1.24-.16l.45.39C64.39,28,64.23,28.19,64.08,28.18ZM68,22.46c-.12-.09-.35-.2-.33-.26a1.74,1.74,0,0,1,.26-.48,1.07,1.07,0,0,1,.2.23.44.44,0,0,1,0,.28A1,1,0,0,1,68,22.46Zm1.59,7.15a1.7,1.7,0,0,1-.78-.27s0-.39.15-.52c.27-.28.69-.08.9.4A.26.26,0,0,1,69.56,29.61Zm1.8-7.28c-.35.19-.59,0-.85-.18a.61.61,0,0,1-.3-.77c.11-.23.4-.36.55-.48s.33,0,.44,0c.45.08.82.44.77.78S71.64,22.19,71.36,22.33Zm.78,5.36c-.15-.06-.25-.25-.36-.4s.14-.19.2-.19a1,1,0,0,1,.55.15,1,1,0,0,1,.11.47A1.19,1.19,0,0,1,72.14,27.69Zm.67.31a.66.66,0,0,1-.06-.2c.2,0,.29.11.26.26C72.94,28,72.84,28,72.81,28ZM84.69,5.23c0,.31-.22.22-.39.2Zm-.5,5,2.4.9a4.86,4.86,0,0,1-.52,2.51c-.15-.34-.27-.57-.35-.81s-.16-.59-.29-.87a.84.84,0,0,0-1.11-.29c-.39.29-.75.62-1.12.93A3.5,3.5,0,0,1,84.19,10.22Zm-1.81,2.69a.6.6,0,0,1,.75-.19c.15.25.3.49.42.74.24.5.18,1-.1,1a1.2,1.2,0,0,1-1.06-.5A.85.85,0,0,1,82.38,12.91Zm-.33,16.58c.06.31-.19.64-.45.58S81,29.83,81,29.5a.67.67,0,0,1,.35-.43C81.65,28.94,82,29.18,82.05,29.49ZM80.92,8.89l-.06.18-.08-.18Zm-.43-4.84s.05.1.07.16a.87.87,0,0,1-.22,0s0-.11-.07-.16A.59.59,0,0,1,80.49,4.05Zm.19,11.34c.85.43,1,.69.74,1.12a10.89,10.89,0,0,1-.89,1.32c-.54.64-1.16,1.22-1.75,1.83-.19-.21-.42-.34-.44-.5a4.86,4.86,0,0,0-.58-2.09.54.54,0,0,1,0-.54c.31-.24.52,0,.78.19.51.27.91.21,1.16-.1S80.37,15.8,80.68,15.39ZM78.37,4.3a1.93,1.93,0,0,1,.24.5c-.08.06-.14.15-.23.17s-.24,0-.27,0a.86.86,0,0,1-.17-.5C78,4.16,78.19,4.11,78.37,4.3ZM77,7.12c.06.06.16.13.15.19s-.15.17-.17.15C76.7,7.34,76.71,7.22,77,7.12Zm.37,2.5c.53-.49,1-1.07,1.47-1.62.5.46.21,1,.35,1.45s.36,1,.47,1.44c0,.25-.16.25-.44.11a.76.76,0,0,0-1.1.24,7.87,7.87,0,0,1-.55.71l-2.16-.54c0-.09,0-.18,0-.21C76,10.67,76.72,10.18,77.33,9.62ZM74.74,6c.06-.12.31-.15.47-.22s.25.07.25.1,0,.35-.08.43a1.28,1.28,0,0,1-.51.17C74.82,6.31,74.68,6.1,74.74,6Zm-.32,20.58c.22-.45.37-.93.53-1.36.29.73.56,1.39.78,2.06,0,.09-.25.37-.37.37a1.67,1.67,0,0,1-.86-.26C74.24,27.19,74.26,26.88,74.42,26.57ZM72.72,3.41l0,.2-.25-.12Zm-.46,3.14A1.59,1.59,0,0,1,73.5,7.77a.32.32,0,0,1,0,.26c-.17.09-.4.23-.54.19C72.15,8,72.06,7.72,72.26,6.55Zm1.53,3.88c-.17.09-.34.25-.5.25s-.32-.18-.47-.28c.16-.09.32-.26.48-.25S73.63,10.33,73.79,10.43Zm-3.24,2.21a.59.59,0,0,1,.68-.41,1,1,0,0,1,.49.32.59.59,0,0,1,.09.5c-.1.14-.34.18-.52.26l-.29,0C70.64,13.19,70.44,12.9,70.55,12.64Zm-.27,2.06a.37.37,0,0,1,.54-.19,5,5,0,0,1,.57.28,5.63,5.63,0,0,1,1.76,2.55,1.36,1.36,0,0,1-.57,1.89.85.85,0,0,1-1.15,0,4.63,4.63,0,0,1-.4-.48,2.39,2.39,0,0,0-.22-.23.75.75,0,0,0-.89-.12,14.5,14.5,0,0,0-1.27.81c-.75-.48-.42-1.24-.75-1.76l-1-1.49c.19,0,.4-.08.49,0a7.89,7.89,0,0,0,3.12,1.48c.1,0,.18.11.28.15.48.2,1,.1,1.1-.19a1.09,1.09,0,0,0-.41-1.12c-.39-.33-.83-.64-1.19-1C70.21,15.16,70.23,14.87,70.28,14.7ZM67.13,8.46c.91.7,1.57,1.42,2.63,1.45.08,0,.26.35.22.5-.14.49-.34,1-.52,1.46,0,.1-.1.19-.14.28a1.4,1.4,0,0,1-1.36.66c-.56-.17-.29-.65-.23-1,0-.23-.12-.38-.39-.39a.38.38,0,0,0-.28.12c-.11.18-.15.39-.25.57a1.19,1.19,0,0,1-.34.49,1.15,1.15,0,0,1-.61,0c-.07,0-.17-.16-.15-.22a5.3,5.3,0,0,1,.59-2A3.89,3.89,0,0,0,67.13,8.46ZM65.34,6.27a2.29,2.29,0,0,1,.6.18.35.35,0,0,1,.21.52c-.19.6-.69.73-1.21.28a1.06,1.06,0,0,1-.29-.54C64.6,6.49,65,6.23,65.34,6.27Zm-1.12,4.64a1,1,0,0,1,.28.09c0,.07-.07.2-.1.2a.72.72,0,0,1-.27-.09C64.16,11,64.19,10.92,64.22,10.91Zm-.49,3.36A1,1,0,0,0,65,14.9c1.16-.26,1.17-.26,1.7.76,0,.06,0,.13.08.19a2.66,2.66,0,0,0-.83-.08.7.7,0,0,0-.45,1c.33.4.69.77,1.11,1.25-.71.48-1.38.95-2.08,1.38,0,0-.43-.22-.44-.36a18.15,18.15,0,0,0-.17-2.46,19.19,19.19,0,0,0-1-2.31,2.26,2.26,0,0,1-.13-.93c0-.13.22-.28.36-.37s.27,0,.29.11C63.56,13.47,63.6,13.88,63.73,14.27ZM62.46,6.94c0-.07.17-.1.33-.2.21.17.52.3.65.54s-.63,1.74-1.07,2c0,0-.2,0-.28-.07s-.21-.14-.22-.22A2.9,2.9,0,0,1,62.46,6.94Zm-1.1,10.33c.22-.28.67-.49.73-.32a4.08,4.08,0,0,1,.17.61,8.62,8.62,0,0,1-.3,1.16c0,.11-.34.15-.52.18s-.2-.11-.24-.19A1.27,1.27,0,0,1,61.36,17.27Zm-.61-2.49a1.88,1.88,0,0,1-1.15-1.07c-.17-.38,0-1,.39-1a1.23,1.23,0,0,1,.84.35A1.32,1.32,0,0,1,60.75,14.78Zm-.22-3.64,0-.22.21.13ZM59,6.51a1.68,1.68,0,0,1,1.39-.61c.08,0,.14.15.21.23A1.16,1.16,0,0,1,59.15,7a.38.38,0,0,1-.24-.19A.28.28,0,0,1,59,6.51ZM58.4,9.23a.9.9,0,0,1,.6,0c.15.08.24.31.33.43-.16.81-.3,1.59-.46,2.36,0,.09-.17.23-.21.21s-.48-.13-.52-.26a8.89,8.89,0,0,1-.41-1.75A1,1,0,0,1,58.4,9.23Zm-1.22,4c.1-.19.31-.23.49,0a5.91,5.91,0,0,1,.48.71c-.12.22-.18.44-.32.52a.59.59,0,0,1-.52-.07A1,1,0,0,1,57.18,13.27Zm-.41-7.33s.12.12.18.18-.17.18-.2.16C56.49,6.16,56.5,6,56.77,5.94ZM55.11,8.35c0-.09.16-.24.21-.22.39.12.78.26,1.17.4a2.55,2.55,0,0,1-.17.38.62.62,0,0,1-.84.2A.6.6,0,0,1,55.11,8.35Zm-2.75,0c.3,0,.55.14.65.6a2.53,2.53,0,0,1-.5.47c-.26.13-.53-.1-.59-.45A.52.52,0,0,1,52.36,8.35Zm-1.31,2.09c.16-.1.48-.21.56-.14a1.71,1.71,0,0,0,2.31.06c.56-.34.89-.2,1.4.3a.46.46,0,0,1-.11.75c-.49.18-1,.34-1.39.47l-2.33-.51c-.09,0-.17-.12-.26-.16C51,11.09,50.83,10.58,51.05,10.44Zm.71,3.6c.07,0,.15.18.13.22a1,1,0,0,1-.32.41,2,2,0,0,1-1.21,0,.76.76,0,0,1-.33-.43c-.08-.26.27-.6.56-.54A11.22,11.22,0,0,1,51.76,14ZM49.48,8a.92.92,0,0,1,1-.39.89.89,0,0,1-.33,1c-.23.21-.77.17-.8-.06A.89.89,0,0,1,49.48,8ZM1.35,11a1.55,1.55,0,0,1-.12-1.59A1.63,1.63,0,0,1,1.35,11ZM1.16,9.35s0,0,0-.07l0,.06ZM1.53,7a1.05,1.05,0,0,1-.82-.75.66.66,0,0,1,.08-.56.6.6,0,0,1,.51-.2.55.55,0,0,1,.37.4A7,7,0,0,1,1.53,7Zm.76,6.68a.61.61,0,0,1-.16-.52c0-.13.28-.21.44-.31.09.14.26.28.27.42C2.86,13.61,2.49,13.87,2.29,13.66Zm8.19-8.32A3.26,3.26,0,0,1,11,4.58a.62.62,0,0,1,.85.09.62.62,0,0,1-.17.81,5,5,0,0,1-.8.27C10.5,5.69,10.37,5.54,10.48,5.34ZM9.28,9.06c.3.1.32.26.06.38a.35.35,0,0,1-.28,0C9,9.34,9,9.22,9,9.13S9.21,9,9.28,9.06ZM5,12.11l.31.26C4.83,12.52,4.92,12.3,5,12.11ZM3.05,4.65a.36.36,0,0,1,.12-.28.4.4,0,0,1,.3,0,5.8,5.8,0,0,1,1.12.54A1.07,1.07,0,0,1,4.75,5a1.44,1.44,0,0,0-.54,0,2.79,2.79,0,0,1-1,.09C3.17,5.13,3.09,4.83,3.05,4.65Zm.79,14.63c.08,0,.17-.06.24,0a.42.42,0,0,1,.16.11Zm.43.08A1.83,1.83,0,0,1,4,18.9c-.18-.92-.32-1.84-.49-2.82,1.12.15,1.21,1.11,1.92,1.61ZM6,5.49s-.14.13-.15.13l-.3-.34C5.69,5.23,5.87,5.19,6,5.49ZM5.81,8.86c-.07,0-.23-.15-.21-.18a3.12,3.12,0,0,1,.29-.45l.2.21A.29.29,0,0,1,5.81,8.86Zm.93,15.06s.13-.1.16-.09l.09.08Zm4.43,2.58c-.07.05-.23.1-.27.07A16.64,16.64,0,0,0,8.21,25a2,2,0,0,1-1-1.06c1-.34,1.68.74,2.62.43a22.48,22.48,0,0,1,1.46,1.87A.29.29,0,0,1,11.17,26.5Zm1.21-13.74a3.2,3.2,0,0,1-.67.49,4.28,4.28,0,0,1-.57-.29s0-.19,0-.25a2.75,2.75,0,0,1,.62-.61c.11-.07.42,0,.53.16A.5.5,0,0,1,12.38,12.76Zm.95-2.11c-.31-.11-.57-.27-.53-.65a.54.54,0,0,1,.67-.47c.39.09.58.32.52.64S13.65,10.75,13.33,10.65ZM14.39,18a3.72,3.72,0,0,1-.64-2.31c0-.25.38-.56.65-.48a.87.87,0,0,1,.51.27,2.27,2.27,0,0,1,.29.84c.11.69.18,1.39.26,2.08A1,1,0,0,1,14.39,18Zm1.25,2.28c-.08,0-.24.06-.28,0s-.31-.31-.29-.44a14.78,14.78,0,0,1,.39-1.45h0c0,.35.2.53.42.75C16.35,19.6,16.26,20,15.64,20.23Zm.72,9.35c-.05-.06-.15-.12-.15-.18s.11-.11.17-.16.15.12.15.18S16.42,29.53,16.36,29.58ZM42.94,30.7a.61.61,0,0,1-.24.06c0-.22,0-.32.26-.27C43,30.5,43,30.68,42.94,30.7Zm.15-18.37c-.25,0-.3-.09-.13-.32.07,0,.19.05.19.07S43.12,12.32,43.09,12.33Zm3,2.33c-.33,0-.82-.09-.78-.35.11-.66.58-.29.92-.14a.3.3,0,0,1,.08.28C46.29,14.53,46.17,14.59,46.09,14.66Zm1.36,16.66c-1-.42-1.18-.76-1-1.91,0-.13.23-.25.37-.34s.21.05.26.11a3.55,3.55,0,0,1,.3.54L48,31.09C47.78,31.19,47.57,31.36,47.45,31.32Zm.67-18.2,0-.07h.08ZM48.18,4l.46.25c-.06.08-.1.18-.18.22-.23.11-.4,0-.43-.23C48,4.15,48.12,4.06,48.18,4ZM46.1,9.65c0-.08.16-.12.35-.25.58.28,1.22.58,1.83.92.09,0,.1.39,0,.52a.67.67,0,0,1-.51.26,2.4,2.4,0,0,1-1.69-1.17A.31.31,0,0,1,46.1,9.65ZM45,6.74a.69.69,0,0,1,.8-.19.36.36,0,0,1,.19.51c-.12.36-.39.52-.66.4A.6.6,0,0,1,45,6.74Zm-.89-3.48a.28.28,0,0,1,.26.05s0,.16,0,.24-.18.11-.24.09C43.86,3.56,43.84,3.4,44.06,3.26Zm.2,15.48a.71.71,0,0,1,.59,0c.15.07.23.31.33.47a1.41,1.41,0,0,1-.65,1,.34.34,0,0,1-.29,0c-.15-.11-.38-.25-.39-.38A1.16,1.16,0,0,1,44.26,18.74Zm-2-11a6.8,6.8,0,0,0,1,1.91c.08.1,0,.37-.07.55s-.53.13-.78-.17c-.48-.55-1-1.1-1.42-1.67-.1-.13-.16-.47-.09-.52a2,2,0,0,1,.81-.36A.63.63,0,0,1,42.28,7.75ZM40.51,5.43c.13-.06.36.06.54.1a1,1,0,0,1-.16.24c-.15.13-.31.24-.47.36-.06-.07-.19-.17-.17-.22S40.37,5.5,40.51,5.43Zm-.7-1.9-.11.14-.05-.16Zm0,8.22a2,2,0,0,1-.66.28.44.44,0,0,1-.35-.65.66.66,0,0,1,.45-.31C39.57,11,39.85,11.31,39.8,11.75ZM38.88,9.1a.28.28,0,0,1,.44.2c0,.06-.12.22-.14.22a4.16,4.16,0,0,1-.48-.22C38.76,9.23,38.81,9.13,38.88,9.1Zm-.11,8.68a1.51,1.51,0,0,1,.28.15l-1.78,1.59c-.08.07-.19.08-.28.14s-.78,0-.85-.2a.77.77,0,0,1,0-.54A2.16,2.16,0,0,1,38.77,17.78Zm-2.38,4.16a1.6,1.6,0,0,1-.3-.13c-.26-.17-.47-.38-.41-.71,0-.08.15-.14.28-.26a3.58,3.58,0,0,1,.63.6C36.65,21.53,36.46,21.77,36.39,21.94Zm.84-15.85a.62.62,0,0,1,.86.15,4.32,4.32,0,0,1,.53.76c.14.33-.07.58-.35.78s-.58.25-.82,0-.54-.65-.85-1A3.63,3.63,0,0,1,37.23,6.09ZM36.94,9.8c.26.17.39.53.19.73s-.35.14-.63.24a2.48,2.48,0,0,1-.24-.71C36.27,9.77,36.68,9.64,36.94,9.8Zm-.48,2.82a.78.78,0,0,1,0,.31.8.8,0,0,1-.2.21,3.15,3.15,0,0,1-2.15.37.65.65,0,0,1-.39-1A1.34,1.34,0,0,1,35.42,12,1.54,1.54,0,0,1,36.46,12.62Zm-1.87-6.1.09.2h-.22Zm-.6,2a1.32,1.32,0,0,1,1.22-.11c.06,0,.1.21.07.3-.22.66-1,.69-1.41,1.14a3.82,3.82,0,0,1-.18-.51A.74.74,0,0,1,34,8.49Zm-.17,1.36c-.34.2-.69.42-1,.61a.37.37,0,0,1-.29-.05.92.92,0,0,1,0-.57A.64.64,0,0,1,33,9.58,4.14,4.14,0,0,1,33.82,9.85ZM32.4,7.34c.15-.27.3-.25.42,0-.07.06-.15.17-.23.17S32.39,7.37,32.4,7.34Zm.23-4,.21.22c-.08.07-.16.18-.23.18s-.14-.13-.21-.21ZM30.54,5.51c.07,0,.19,0,.19.08a2.29,2.29,0,0,1-.05.52.32.32,0,0,1-.25,0c-.07,0-.16-.16-.15-.2A3.78,3.78,0,0,1,30.54,5.51ZM29.39,9.4c.06,0,.12.13.19.2l-.07.27c-.08,0-.21,0-.24-.07C29.13,9.57,29.18,9.41,29.39,9.4Zm-.21,2.78A4.46,4.46,0,0,1,30.39,12c.17,0,.48.16.51.29.42,1.72,2,2.93,2.19,4.72a.33.33,0,0,1-.13.26.3.3,0,0,1-.27,0c-.24-.18-.45-.39-.68-.59a5.23,5.23,0,0,1-1.79-2.5c-.1-.35-.53-.62-.8-.94S28.94,12.26,29.18,12.18ZM27.67,4.7c.08,0,.15.1.23.15-.09,0-.18.1-.26.09s-.15-.09-.22-.14S27.59,4.7,27.67,4.7Zm-4.78,8.92a1.19,1.19,0,0,1,1.23.82c-.62,0-1.21,0-1.8.09s-1.24.27-1.87.29c-.22,0-.45-.33-.66-.5.53-.72.86-1.5,1.67-1.88C21.87,13,22.1,13.55,22.89,13.62Zm-2.72-2.54A1,1,0,0,1,20,10.7c0-.14,0-.4.11-.44s.24.08.15.33A4.31,4.31,0,0,0,20.17,11.08ZM18.92,3.57c.24,0,.36.07.34.3s-.07.2-.14.23c-.22.09-.33,0-.3-.28C18.83,3.73,18.87,3.59,18.92,3.57Zm-.17,3.07a2.62,2.62,0,0,1,3,1.08c0,.06,0,.18,0,.27s-.12.21-.17.21a21.28,21.28,0,0,1-2.39-.4c-.23,0-.42-.42-.54-.67S18.64,6.67,18.75,6.64Zm0,5.06a.65.65,0,0,1,.13-.53c.42-.45.84-.27,1.24,0a4.14,4.14,0,0,1-.91.71A.49.49,0,0,1,18.76,11.7Zm1.83,18.82c-.19.34-.54.47-.76.25s-.55-.61-.82-.91-.2-.36,0-.48a2.38,2.38,0,0,1,.41-.11,9.74,9.74,0,0,1,1,.47C20.77,29.92,20.75,30.22,20.59,30.52Zm2.14-5.39c0,.1-.27.14-.41.2,0-.16-.16-.39-.1-.47a.92.92,0,0,1,.45-.16A.85.85,0,0,1,22.73,25.13Zm1.77-.76a3.46,3.46,0,0,1-1.77.27,3.26,3.26,0,0,0-.53-2.32,1.49,1.49,0,0,1,.1-1.75c.58-.84,1.23-1.63,1.86-2.45.12.12.27.22.25.26-.46,1.13-.94,2.24-1.45,3.43l1.8,1.8C25,23.81,24.8,24.27,24.5,24.37Zm1.87-11.79c-.06.57-.33.94-.69.87-.58-.1-.94-.41-.87-1L24,12.14c-.56-.18-.82-.44-.8-.77a1.19,1.19,0,0,1,.89-1.15,1.83,1.83,0,0,1,2.36,1.43A7.25,7.25,0,0,1,26.37,12.58Zm-.8-4.08c-.13,0-.87-.06-1.61-.14-.08,0-.16-.13-.23-.2.13-.14.25-.37.41-.39a5.08,5.08,0,0,0,2.11-.61,1.34,1.34,0,0,1,1.22,0,.72.72,0,0,1,.5.7c0,.27-.3.67-.53.68Zm3.14,22.57c-.2.13-.68-.16-.65-.38a.66.66,0,0,1,.3-.43.41.41,0,0,1,.63.34C28.9,30.76,28.85,31,28.71,31.07Zm0-7.16c-.07,0-.23-.15-.21-.17a2.87,2.87,0,0,1,.28-.43l.2.18C29,23.75,29,23.9,28.69,23.91Zm.45-6c-.62-.55-1.23-1.12-1.8-1.73A1.1,1.1,0,0,1,27.18,15a1,1,0,0,1,.92-.68A6.3,6.3,0,0,0,28.65,16a9.3,9.3,0,0,0,1.41,1.22c.08.08,0,.35-.07.52a.35.35,0,0,1-.25.16C29.54,17.94,29.26,18,29.14,17.88Zm1.37,8.86c-.49.16-1-.33-1.07-.9a.73.73,0,0,1,.51-.69c.52-.11,1,.34,1.05,1C30.88,26.33,30.74,26.66,30.51,26.74ZM31,23.15c-.38.13-.59-.09-.78-.36s-.14-.43.13-.5a.72.72,0,0,1,.58.08c.14.11.17.35.25.54S31.1,23.12,31,23.15Zm.27-3.51c0-.15.32-.39.4-.36.85.32,1.63.54,2-.6.07-.22.3-.25.55-.16a.56.56,0,0,1,.3.75c-.22.34-.43.8-.76.94a7.42,7.42,0,0,1-1.68.35A.92.92,0,0,1,31.29,19.64Zm1.62,8.3a.29.29,0,0,1-.26,0,.36.36,0,0,1-.23-.51,2.14,2.14,0,0,1,.26-.55,1.22,1.22,0,0,0-.09-1.68c-.15-.2-.1-.4.18-.46a.68.68,0,0,1,.54.15c.13.14.13.38.22.57a.77.77,0,0,0,.75.43c.82.06,1.35-.58,2.07-.73.1,0,.27.22.4.34A1.34,1.34,0,0,1,35.5,27,3.15,3.15,0,0,0,32.91,27.94Zm3.57,2.16c-.29.06-.64-.35-.5-.59s.4-.51.6-.5.4.34.69.63A3.42,3.42,0,0,1,36.48,30.1Zm.9-6.19c-.06,0-.15-.13-.22-.2l.53-.23.21.22A3.33,3.33,0,0,1,37.38,23.91Zm1.42-1.62a1.62,1.62,0,0,1,0-.54.43.43,0,0,1,.28,0,.89.89,0,0,1,.37,1C39.06,22.82,38.9,22.58,38.8,22.29Zm.89.93a.3.3,0,0,1-.22-.43.29.29,0,0,1,.42.24C39.9,23.09,39.73,23.24,39.69,23.22Zm.51-7.85a.7.7,0,0,1-.83.19,1.16,1.16,0,0,1-.44-1.1.59.59,0,0,1,.4-.4,3,3,0,0,1,.83,0c.86.32,1.56-.46,2.3,0a.43.43,0,0,1,.21.23.3.3,0,0,1-.12.26,2.55,2.55,0,0,1-.84.35A2.29,2.29,0,0,0,40.2,15.37Z"/></svg>